<?xml version="1.0" encoding="UTF-8"?><svg id="Layer_1" xmlns="http://www.w3.org/2000/svg" viewBox="0 0 1100.48 179.55"><defs><style>.cls-1{fill:none;}.cls-2{fill:#046cc1;}.cls-3{fill:#00965e;}.cls-4{fill:#0075c9;}.cls-5{fill:#ffcd00;}.cls-6{fill:#87189d;}.cls-7{fill:#53a6d8;}.cls-8{fill:#393535;}.cls-9{font-family:Poppins-SemiBold, Poppins;font-size:16.62px;opacity:.9;}</style></defs><path class="cls-8" d="M59.76,86.8l-24.3-32v32H17.76V14.5h17.6v31.7L59.56,14.5h20.7l-28.1,35.4,29.1,36.9h-21.5Z"/><path class="cls-8" d="M149.26,86.8h-17.6l-29.5-44.6v44.6h-17.6V14.5h17.6l29.5,44.8V14.5h17.6V86.8Z"/><path class="cls-8" d="M332.46,14.5l-18.9,72.4h-21.3l-11.6-47.6-12,47.6h-21.3L229.06,14.5h18.9l10.4,52.7,12.9-52.7h19.4l12.4,52.7,10.5-52.7h18.9Z"/><path class="cls-8" d="M414.96,14.5l-25.1,48.4v23.9h-17.6v-23.9l-25.1-48.4h20l14,30.3,13.9-30.3h19.9Z"/><path class="cls-8" d="M510.16,14.5V57.8c0,4.3,1.1,7.7,3.2,10s5.3,3.5,9.4,3.5,7.3-1.2,9.5-3.5,3.3-5.7,3.3-10V14.5h17.6V57.7c0,6.5-1.4,11.9-4.1,16.4s-6.5,7.8-11.1,10.1c-4.6,2.3-9.8,3.4-15.5,3.4s-10.8-1.1-15.4-3.3c-4.5-2.3-8-5.6-10.6-10.1s-3.9-10-3.9-16.5V14.5h17.6Z"/><path class="cls-8" d="M597.26,86.8l-15.1-27.3h-4.2v27.3h-17.6V14.5h29.6c5.7,0,10.6,1,14.5,3,4.1,2,7.1,4.7,9.1,8.2,2,3.4,3,7.3,3,11.5,0,4.8-1.4,9.1-4.1,12.9-2.7,3.8-6.7,6.5-12,8l16.7,28.7h-19.9Zm-19.2-39.8h10.9c3.2,0,5.6-.8,7.2-2.4,1.7-1.6,2.5-3.8,2.5-6.7,0-2.7-.8-4.9-2.5-6.5-1.6-1.6-4-2.4-7.2-2.4h-10.9v18Z"/><path class="cls-8" d="M707.16,14.5l-25.7,72.4h-22.1l-25.6-72.4h18.8l17.9,54.6,18-54.6h18.7Z"/><path class="cls-8" d="M837.36,14.5v14.1h-19.2v58.2h-17.6V28.6h-19.2V14.5h56Z"/><path class="cls-8" d="M858.76,28.6v14.6h23.6v13.6h-23.6v15.9h26.7v14.1h-44.3V14.5h44.3v14.1h-26.7Z"/><path class="cls-8" d="M970.56,14.5v14.1h-19.2v58.2h-17.6V28.6h-19.2V14.5h56Z"/><path class="cls-8" d="M972.46,87.6c-3.1,0-5.6-.9-7.6-2.7-1.9-1.9-2.9-4.1-2.9-6.8s1-5.1,2.9-6.9c2-1.9,4.5-2.8,7.6-2.8s5.5,.9,7.4,2.8c2,1.9,3,4.2,3,6.9s-1,4.9-3,6.8c-1.9,1.9-4.4,2.7-7.4,2.7Z"/><path class="cls-8" d="M1072.36,87.6c-3.1,0-5.6-.9-7.6-2.7-1.9-1.9-2.9-4.1-2.9-6.8s1-5.1,2.9-6.9c2-1.9,4.5-2.8,7.6-2.8s5.5,.9,7.4,2.8c2,1.9,3,4.2,3,6.9s-1,4.9-3,6.8c-1.9,1.9-4.4,2.7-7.4,2.7Z"/><path class="cls-7" d="M488.26,50.8c0,21.3-17.2,38.5-38.5,38.5s-38.5-17.2-38.5-38.5,17.2-38.5,38.5-38.5,38.5,17.2,38.5,38.5Z"/><path class="cls-6" d="M230.06,50.8c0,21.3-17.2,38.5-38.5,38.5s-38.5-17.2-38.5-38.5,17.2-38.5,38.5-38.5,38.5,17.2,38.5,38.5Z"/><path class="cls-5" d="M781.36,50.8c0,21.3-17.2,38.5-38.5,38.5s-38.5-17.2-38.5-38.5,17.2-38.5,38.5-38.5,38.5,17.2,38.5,38.5Z"/><path class="cls-3" d="M1061.66,50.8c0,21.3-17.2,38.5-38.5,38.5s-38.5-17.2-38.5-38.5,17.2-38.5,38.5-38.5,38.5,17.2,38.5,38.5Z"/><circle class="cls-2" cx="449.76" cy="50.8" r="38.5"/><g id="full-rgb"><rect id="fullLogo" class="cls-1" x="892.94" y="106.72" width="197.83" height="67.24"/><path id="fullLogo-2" d="M1023.73,128.5h1.52c.15,0,.27,.12,.27,.27h0v1.59c0,.15-.12,.27-.27,.27h-1.52v3.73c0,.78,.36,1.03,1.05,1.03,.15,0,.3,0,.44-.02,.15-.02,.28,.09,.3,.24,0,0,0,.02,0,.03v1.48c0,.12-.08,.23-.19,.26-.38,.11-.77,.16-1.17,.15-1.74,0-2.82-1.03-2.82-2.75v-4.14h-1.34c-.15,0-.27-.12-.27-.27v-1.59c0-.15,.12-.27,.27-.27h.18c.94,0,1.38-.62,1.38-1.41v-.98c0-.15,.12-.27,.27-.27h1.63c.15,0,.27,.12,.27,.27v2.39Z"/><path id="fullLogo-3" d="M1035.3,132.95c0,2.73-2.01,4.72-4.67,4.72s-4.67-1.99-4.67-4.72,2.01-4.72,4.67-4.72,4.67,1.97,4.67,4.72Zm-2.41,0c0-1.68-1.09-2.53-2.26-2.53s-2.26,.85-2.26,2.53,1.09,2.53,2.26,2.53,2.26-.85,2.26-2.53h0Z"/><path id="fullLogo-4" d="M1013.17,137.41h-1.86c-.15,0-.27-.12-.27-.27v-8.36c0-.15,.12-.27,.27-.27h1.79c.15,0,.27,.12,.27,.27v.83c.54-.92,1.61-1.34,2.57-1.34,2.21,0,3.22,1.57,3.22,3.53v5.34c0,.15-.12,.27-.27,.27h-1.86c-.15,0-.27-.12-.27-.27v-4.92c0-1-.49-1.77-1.65-1.77-1.05,0-1.67,.81-1.67,1.85v4.85c0,.15-.12,.27-.27,.27h0Z"/><path id="fullLogo-5" d="M1009.99,132.95c0,2.73-2.01,4.72-4.67,4.72s-4.67-1.99-4.67-4.72,2.01-4.72,4.67-4.72,4.67,1.97,4.67,4.72Zm-2.41,0c0-1.68-1.09-2.53-2.26-2.53s-2.26,.85-2.26,2.53,1.09,2.53,2.26,2.53,2.26-.85,2.26-2.53Z"/><path id="fullLogo-6" d="M1000.56,130.57c0,.15-.12,.27-.28,.27-.01,0-.02,0-.03,0-.14-.02-.28-.02-.42-.02-1.23,0-2.3,.6-2.3,2.52v3.8c0,.15-.12,.27-.27,.27h-1.86c-.15,0-.27-.12-.27-.27v-8.36c0-.15,.12-.27,.27-.27h1.79c.15,0,.27,.12,.27,.27v1.05c.54-1.18,1.77-1.39,2.53-1.39,.11,0,.21,0,.31,.01,.14,.01,.25,.13,.25,.27v1.86Z"/><path id="fullLogo-7" d="M994.08,132.95c0,2.73-2.01,4.72-4.67,4.72s-4.67-1.99-4.67-4.72,2.01-4.72,4.67-4.72,4.67,1.97,4.67,4.72Zm-2.41,0c0-1.68-1.09-2.53-2.26-2.53s-2.26,.85-2.26,2.53,1.09,2.53,2.26,2.53,2.26-.85,2.26-2.53Z"/><path id="fullLogo-8" d="M982.51,128.5h1.52c.15,0,.27,.12,.27,.27v1.59c0,.15-.12,.27-.27,.27h-1.52v3.73c0,.78,.36,1.03,1.05,1.03,.15,0,.3,0,.44-.02,.15-.02,.28,.09,.3,.24,0,0,0,.02,0,.03v1.48c0,.12-.08,.23-.19,.26-.38,.11-.77,.16-1.17,.15-1.74,0-2.82-1.03-2.82-2.75v-4.14h-1.34c-.15,0-.27-.12-.27-.27v-1.59c0-.15,.12-.27,.27-.27h.18c.94,0,1.38-.62,1.38-1.41v-.98c0-.15,.12-.27,.27-.27h1.63c.15,0,.27,.12,.27,.27v2.39Z"/><path id="fullLogo-9" d="M1071.57,147.93c0,.15-.12,.27-.28,.27-.01,0-.02,0-.03,0-.14-.02-.28-.02-.42-.02-1.23,0-2.3,.6-2.3,2.52v3.8c0,.15-.12,.27-.27,.27h-1.86c-.15,0-.27-.12-.27-.27v-8.36c0-.15,.12-.27,.27-.27h1.79c.15,0,.27,.12,.27,.27v1.05c.54-1.18,1.77-1.39,2.53-1.39,.11,0,.21,0,.31,.01,.14,.01,.25,.13,.25,.27v1.86Z"/><path id="fullLogo-10" d="M1055.19,147.93c0,.15-.12,.27-.28,.27-.01,0-.02,0-.03,0-.14-.02-.28-.02-.42-.02-1.23,0-2.3,.6-2.3,2.52v3.8c0,.15-.12,.27-.27,.27h-1.86c-.15,0-.27-.12-.27-.27v-8.36c0-.15,.12-.27,.27-.27h1.79c.15,0,.27,.12,.27,.27v1.05c.54-1.18,1.77-1.39,2.53-1.39,.11,0,.21,0,.31,.01,.14,.01,.25,.13,.25,.27v1.86Z"/><path id="fullLogo-11" d="M1073.5,157.89l1.93-4.25-3.59-7.39c-.07-.14,0-.3,.13-.36,.04-.02,.08-.03,.12-.03h2.09c.11,0,.2,.06,.25,.16l2.3,5.05,2.12-5.05c.04-.1,.14-.17,.25-.17h1.97c.15,0,.27,.12,.27,.27,0,.04,0,.08-.02,.11l-5.35,11.87c-.04,.1-.14,.16-.25,.16h-1.95c-.15,0-.27-.12-.27-.27,0-.04,0-.08,.02-.11Z"/><path id="fullLogo-12" d="M1062.1,153.55c-.38,.85-1.3,1.47-2.5,1.47-2.62,0-4.36-2.05-4.36-4.74s1.7-4.67,4.29-4.67c1.59,0,2.34,.85,2.55,1.36v-.83c0-.15,.12-.27,.27-.27h1.79c.15,0,.27,.12,.27,.27v7.02c0,.55,.03,1.02,.05,1.32,.01,.15-.1,.28-.25,.29,0,0-.01,0-.02,0h-1.77c-.14,0-.25-.1-.27-.24-.04-.29-.05-.58-.06-.87v-.11Zm-2.21-.62c1.25,0,2.19-1.03,2.19-2.66s-.92-2.59-2.19-2.59-2.23,.96-2.23,2.59,.92,2.66,2.23,2.66Z"/><path id="fullLogo-13" d="M1039.53,154.49v-12.56c0-.15,.12-.27,.27-.27h1.83c.15,0,.27,.12,.27,.27h0v4.9c.4-.63,1.38-1.21,2.7-1.21,2.61,0,4.11,2.01,4.11,4.65s-1.66,4.71-4.2,4.71c-1.23,0-2.17-.54-2.64-1.3v.81c0,.15-.12,.27-.27,.27h-1.79c-.15,0-.27-.12-.27-.27Zm4.56-6.71c-1.21,0-2.23,.89-2.23,2.52s1.01,2.53,2.23,2.53,2.21-.91,2.21-2.53-.98-2.52-2.21-2.52Z"/><path id="fullLogo-14" d="M1036.6,141.44c.82,0,1.48,.66,1.48,1.48s-.66,1.48-1.48,1.48c-.81,0-1.47-.65-1.48-1.47-.01-.82,.65-1.49,1.46-1.5,0,0,.01,0,.02,0Zm-1.19,13.05v-8.36c0-.15,.12-.27,.27-.27h1.86c.15,0,.27,.12,.27,.27h0v8.36c0,.15-.12,.27-.27,.27h-1.86c-.15,0-.27-.12-.27-.27h0s0,0,0,0Z"/><path id="fullLogo-15" d="M1031.27,154.49v-12.56c0-.15,.12-.27,.27-.27h1.86c.15,0,.27,.12,.27,.27v12.56c0,.15-.12,.27-.27,.27h-1.86c-.15,0-.27-.12-.27-.27Z"/><path id="fullLogo-16" d="M1020.29,150.31c0,1.61,1.05,2.52,2.28,2.52,.85,.03,1.64-.47,1.96-1.26,.06-.13,.2-.2,.34-.16l1.61,.54c.14,.05,.22,.2,.17,.35,0,0,0,0,0,0-.49,1.39-1.85,2.74-4.08,2.74-2.54,.05-4.64-1.98-4.69-4.52,0-.07,0-.13,0-.2,0-2.75,2.03-4.72,4.62-4.72,2.28,0,3.64,1.33,4.1,2.74,.05,.14-.03,.3-.17,.35,0,0,0,0,0,0l-1.65,.56c-.14,.04-.29-.03-.34-.16-.28-.79-1.05-1.3-1.89-1.26-1.23,0-2.26,.89-2.26,2.5Z"/><path id="fullLogo-17" d="M1015.62,141.44c.82,0,1.48,.66,1.48,1.48,0,.82-.66,1.48-1.48,1.48-.81,0-1.47-.65-1.48-1.47-.01-.82,.65-1.49,1.46-1.5,0,0,.01,0,.02,0Zm-1.19,13.05v-8.36c0-.15,.12-.27,.27-.27h1.86c.15,0,.27,.12,.27,.27h0v8.36c0,.15-.12,.27-.27,.27h-1.86c-.15,0-.27-.12-.27-.27h0s0,0,0,0Z"/><path id="fullLogo-18" d="M1010.29,154.49v-12.56c0-.15,.12-.27,.27-.27h1.86c.15,0,.27,.12,.27,.27v12.56c0,.15-.12,.27-.27,.27h-1.86c-.15,0-.27-.12-.27-.27h0Z"/><path id="fullLogo-19" d="M1000.07,154.49v-12.56c0-.15,.12-.27,.27-.27h1.83c.15,0,.27,.12,.27,.27v4.9c.4-.63,1.38-1.21,2.7-1.21,2.61,0,4.11,2.01,4.11,4.65s-1.67,4.71-4.2,4.71c-1.23,0-2.17-.54-2.64-1.3v.81c0,.15-.12,.27-.27,.27h-1.79c-.15,0-.27-.12-.27-.27Zm4.56-6.71c-1.21,0-2.23,.89-2.23,2.52s1.01,2.53,2.23,2.53,2.21-.91,2.21-2.53-.98-2.52-2.21-2.52Z"/><path id="fullLogo-20" d="M996.07,153.81c-.49,.83-1.52,1.19-2.46,1.19-2.15,0-3.38-1.57-3.38-3.51v-5.36c0-.15,.12-.27,.27-.27h1.86c.15,0,.27,.12,.27,.27h0v4.87c0,1,.51,1.79,1.63,1.79s1.68-.72,1.68-1.76v-4.9c0-.15,.12-.27,.27-.27h1.86c.15,0,.27,.12,.27,.27h0v7.02c0,.51,.03,.98,.06,1.32,.01,.15-.1,.28-.25,.29,0,0-.02,0-.02,0h-1.76c-.14,0-.26-.1-.27-.24-.02-.2-.04-.47-.04-.72Z"/><path id="fullLogo-21" d="M980.12,157.93v-11.8c0-.15,.12-.27,.27-.27h1.79c.15,0,.27,.12,.27,.27h0v.81c.4-.69,1.39-1.29,2.73-1.29,2.61,0,4.11,1.99,4.11,4.63s-1.68,4.69-4.2,4.69c-1.23,0-2.14-.49-2.57-1.09v4.04c0,.15-.12,.27-.27,.27h-1.86c-.15,0-.27-.12-.27-.27h0Zm4.6-10.12c-1.23,0-2.23,.92-2.23,2.5s1,2.52,2.23,2.52,2.21-.92,2.21-2.52-.98-2.5-2.21-2.5h0Z"/><path id="logoMark_CompoundPathItem_" d="M914.14,128.5v-7c0-.45-.36-.81-.81-.81h-4.75c-.45,0-.81,.36-.81,.81h0v2.85c0,2.34-1.28,4.15-4.04,4.15h-.51c-.45,0-.81,.36-.81,.81v4.65c0,.45,.36,.81,.81,.81h3.92v12.18c0,5.05,3.19,8.08,8.3,8.08,1.15,.02,2.31-.12,3.42-.44,.34-.11,.57-.42,.57-.78v-4.32c0-.45-.37-.82-.82-.81-.03,0-.06,0-.08,0-.39,.04-.85,.07-1.28,.07-2.02,0-3.08-.74-3.08-3.03v-10.95h8.14v28.91c0,.45,.36,.81,.81,.81h5.44c.45,0,.81-.36,.81-.81h0v-11.84c1.28,1.75,3.94,3.19,7.55,3.19,7.39,0,12.34-5.58,12.34-13.51s-4.41-13.61-12.07-13.61c-3.94,0-6.86,1.75-8.03,3.78,0-1.76-1.43-3.19-3.19-3.19h-11.81Zm21.65,20.21c-3.62,0-6.54-2.5-6.54-7.13s2.92-7.34,6.54-7.34,6.49,2.71,6.49,7.34c0,4.68-2.87,7.13-6.49,7.13h0Z"/><rect id="logoMark_PathItem_" x="952.11" y="116.16" width="7.07" height="38.6" rx=".82" ry=".82"/><path id="logoMark_PathItem_2" class="cls-4" d="M969.6,128.23c2.61-.03,4.75,2.06,4.78,4.67,.03,2.61-2.06,4.75-4.67,4.78-.03,0-.07,0-.1,0-2.61-.03-4.7-2.17-4.67-4.78,.03-2.57,2.1-4.64,4.67-4.67Z"/><path id="logoMark_PathItem_3" class="cls-4" d="M969.6,145.59c2.61-.03,4.75,2.06,4.78,4.67s-2.06,4.75-4.67,4.78c-.03,0-.07,0-.1,0-2.61-.03-4.7-2.17-4.67-4.78,.03-2.57,2.1-4.64,4.67-4.67Z"/></g><text class="cls-9" transform="translate(795.89 134.16)"><tspan x="0" y="0">A project of </tspan></text></svg>