<svg width="259" height="86" viewBox="0 0 259 86" fill="none" xmlns="http://www.w3.org/2000/svg">
<path d="M24.3072 36.9658L14.4233 23.8791V36.9658H7.22388V7.39807H14.3826V20.3621L24.2259 7.39807H32.6455L21.216 21.8752L33.0523 36.9658H24.3072V36.9658Z" fill="#393535"/>
<path d="M60.711 36.9658H53.5523L41.5533 18.7262V36.9658H34.3945V7.39807H41.5533L53.5523 25.7194V7.39807H60.711V36.9658Z" fill="#393535"/>
<path d="M135.227 7.39807L127.54 37.0067H118.876L114.158 17.5403L109.277 37.0067H100.613L93.1694 7.39807H100.857L105.087 28.9502L110.334 7.39807H118.225L123.269 28.9502L127.54 7.39807H135.227V7.39807Z" fill="#393535"/>
<path d="M168.783 7.39807L158.574 27.1917V36.9658H151.415V27.1917L141.206 7.39807H149.341L155.035 19.7895L160.689 7.39807H168.783V7.39807Z" fill="#393535"/>
<path d="M207.506 7.39807V25.106C207.506 26.8645 207.953 28.255 208.807 29.1956C209.662 30.1362 210.963 30.6269 212.631 30.6269C214.299 30.6269 215.6 30.1362 216.495 29.1956C217.39 28.255 217.837 26.8645 217.837 25.106V7.39807H224.996V25.0651C224.996 27.7233 224.427 29.9317 223.328 31.772C222.23 33.6123 220.685 34.9619 218.813 35.9025C216.942 36.8431 214.827 37.293 212.509 37.293C210.19 37.293 208.116 36.8431 206.245 35.9434C204.415 35.0028 202.991 33.6532 201.933 31.8129C200.876 29.9726 200.347 27.7233 200.347 25.0651V7.39807H207.506V7.39807Z" fill="#393535"/>
<path d="M242.934 36.9658L236.792 25.8012H235.083V36.9658H227.925V7.39807H239.964C242.283 7.39807 244.276 7.80703 245.862 8.62495C247.53 9.44287 248.75 10.5471 249.563 11.9784C250.377 13.3689 250.784 14.9638 250.784 16.6814C250.784 18.6444 250.214 20.403 249.116 21.957C248.018 23.5111 246.391 24.6152 244.235 25.2287L251.028 36.9658H242.934ZM235.124 20.6892H239.558C240.859 20.6892 241.835 20.3621 242.486 19.7077C243.178 19.0534 243.503 18.1537 243.503 16.9677C243.503 15.8635 243.178 14.9638 242.486 14.3095C241.835 13.6551 240.859 13.328 239.558 13.328H235.124V20.6892Z" fill="#393535"/>
<path d="M37.0791 50.85L26.6257 80.4586H17.6366L7.22388 50.85H14.8707L22.1515 73.1791L29.4729 50.85H37.0791V50.85Z" fill="#393535"/>
<path d="M90.0373 50.85V56.6163H82.2278V80.4177H75.0691V56.6163H67.2595V50.85H90.0373V50.85Z" fill="#393535"/>
<path d="M98.7417 56.6163V62.5871H108.341V68.1489H98.7417V74.6514H109.602V80.4177H91.583V50.85H109.602V56.6163H98.7417V56.6163Z" fill="#393535"/>
<path d="M144.216 50.85V56.6163H136.407V80.4177H129.248V56.6163H121.438V50.85H144.216Z" fill="#393535"/>
<path d="M144.989 80.7448C143.728 80.7448 142.711 80.3768 141.898 79.6406C141.125 78.8636 140.718 77.9639 140.718 76.8597C140.718 75.7555 141.125 74.774 141.898 74.0379C142.711 73.2609 143.728 72.8928 144.989 72.8928C146.25 72.8928 147.226 73.2609 147.999 74.0379C148.812 74.8149 149.219 75.7555 149.219 76.8597C149.219 77.9639 148.812 78.8636 147.999 79.6406C147.226 80.4177 146.209 80.7448 144.989 80.7448Z" fill="#393535"/>
<path d="M185.623 80.7448C184.362 80.7448 183.345 80.3768 182.532 79.6406C181.759 78.8636 181.352 77.9639 181.352 76.8597C181.352 75.7555 181.759 74.774 182.532 74.0379C183.345 73.2609 184.362 72.8928 185.623 72.8928C186.884 72.8928 187.86 73.2609 188.633 74.0379C189.446 74.8149 189.853 75.7555 189.853 76.8597C189.853 77.9639 189.446 78.8636 188.633 79.6406C187.86 80.4177 186.843 80.7448 185.623 80.7448Z" fill="#393535"/>
<path d="M198.598 22.2433C198.598 30.9542 191.602 37.9883 182.938 37.9883C174.275 37.9883 167.279 30.9542 167.279 22.2433C167.279 13.5325 174.275 6.49841 182.938 6.49841C191.602 6.49841 198.598 13.5325 198.598 22.2433Z" fill="#53A6D8"/>
<path d="M93.5761 22.2433C93.5761 30.9542 86.58 37.9883 77.9163 37.9883C69.2526 37.9883 62.2566 30.9542 62.2566 22.2433C62.2566 13.5325 69.2526 6.49841 77.9163 6.49841C86.58 6.49841 93.5761 13.5325 93.5761 22.2433Z" fill="#87189D"/>
<path d="M67.2597 65.6952C67.2597 74.4061 60.2636 81.4402 51.5999 81.4402C42.9362 81.4402 35.9402 74.4061 35.9402 65.6952C35.9402 56.9844 42.9362 49.9503 51.5999 49.9503C60.2636 49.9503 67.2597 56.9844 67.2597 65.6952Z" fill="#FFCD00"/>
<path d="M181.271 65.6952C181.271 74.4061 174.275 81.4402 165.611 81.4402C156.947 81.4402 149.951 74.4061 149.951 65.6952C149.951 56.9844 156.947 49.9503 165.611 49.9503C174.275 49.9503 181.271 56.9844 181.271 65.6952Z" fill="#00965E"/>
<path d="M182.938 37.9883C191.587 37.9883 198.598 30.939 198.598 22.2433C198.598 13.5477 191.587 6.49841 182.938 6.49841C174.29 6.49841 167.279 13.5477 167.279 22.2433C167.279 30.939 174.29 37.9883 182.938 37.9883Z" fill="#046CC1"/>
</svg>
