<?xml version="1.0" encoding="UTF-8"?><svg id="Layer_1" xmlns="http://www.w3.org/2000/svg" viewBox="0 0 1100.48 105.43"><defs><style>.cls-1{fill:#046cc1;}.cls-2{fill:#00965e;}.cls-3{fill:#ffcd00;}.cls-4{fill:#87189d;}.cls-5{fill:#53a6d8;}.cls-6{fill:#393535;}</style></defs><path class="cls-6" d="M59.76,86.8l-24.3-32v32H17.76V14.5h17.6v31.7L59.56,14.5h20.7l-28.1,35.4,29.1,36.9h-21.5Z"/><path class="cls-6" d="M149.26,86.8h-17.6l-29.5-44.6v44.6h-17.6V14.5h17.6l29.5,44.8V14.5h17.6V86.8Z"/><path class="cls-6" d="M332.46,14.5l-18.9,72.4h-21.3l-11.6-47.6-12,47.6h-21.3L229.06,14.5h18.9l10.4,52.7,12.9-52.7h19.4l12.4,52.7,10.5-52.7h18.9Z"/><path class="cls-6" d="M414.96,14.5l-25.1,48.4v23.9h-17.6v-23.9l-25.1-48.4h20l14,30.3,13.9-30.3h19.9Z"/><path class="cls-6" d="M510.16,14.5V57.8c0,4.3,1.1,7.7,3.2,10s5.3,3.5,9.4,3.5,7.3-1.2,9.5-3.5,3.3-5.7,3.3-10V14.5h17.6V57.7c0,6.5-1.4,11.9-4.1,16.4s-6.5,7.8-11.1,10.1c-4.6,2.3-9.8,3.4-15.5,3.4s-10.8-1.1-15.4-3.3c-4.5-2.3-8-5.6-10.6-10.1s-3.9-10-3.9-16.5V14.5h17.6Z"/><path class="cls-6" d="M597.26,86.8l-15.1-27.3h-4.2v27.3h-17.6V14.5h29.6c5.7,0,10.6,1,14.5,3,4.1,2,7.1,4.7,9.1,8.2,2,3.4,3,7.3,3,11.5,0,4.8-1.4,9.1-4.1,12.9-2.7,3.8-6.7,6.5-12,8l16.7,28.7h-19.9Zm-19.2-39.8h10.9c3.2,0,5.6-.8,7.2-2.4,1.7-1.6,2.5-3.8,2.5-6.7,0-2.7-.8-4.9-2.5-6.5-1.6-1.6-4-2.4-7.2-2.4h-10.9v18Z"/><path class="cls-6" d="M707.16,14.5l-25.7,72.4h-22.1l-25.6-72.4h18.8l17.9,54.6,18-54.6h18.7Z"/><path class="cls-6" d="M837.36,14.5v14.1h-19.2v58.2h-17.6V28.6h-19.2V14.5h56Z"/><path class="cls-6" d="M858.76,28.6v14.6h23.6v13.6h-23.6v15.9h26.7v14.1h-44.3V14.5h44.3v14.1h-26.7Z"/><path class="cls-6" d="M970.56,14.5v14.1h-19.2v58.2h-17.6V28.6h-19.2V14.5h56Z"/><path class="cls-6" d="M972.46,87.6c-3.1,0-5.6-.9-7.6-2.7-1.9-1.9-2.9-4.1-2.9-6.8s1-5.1,2.9-6.9c2-1.9,4.5-2.8,7.6-2.8s5.5,.9,7.4,2.8c2,1.9,3,4.2,3,6.9s-1,4.9-3,6.8c-1.9,1.9-4.4,2.7-7.4,2.7Z"/><path class="cls-6" d="M1072.36,87.6c-3.1,0-5.6-.9-7.6-2.7-1.9-1.9-2.9-4.1-2.9-6.8s1-5.1,2.9-6.9c2-1.9,4.5-2.8,7.6-2.8s5.5,.9,7.4,2.8c2,1.9,3,4.2,3,6.9s-1,4.9-3,6.8c-1.9,1.9-4.4,2.7-7.4,2.7Z"/><path class="cls-5" d="M488.26,50.8c0,21.3-17.2,38.5-38.5,38.5s-38.5-17.2-38.5-38.5,17.2-38.5,38.5-38.5,38.5,17.2,38.5,38.5Z"/><path class="cls-4" d="M230.06,50.8c0,21.3-17.2,38.5-38.5,38.5s-38.5-17.2-38.5-38.5,17.2-38.5,38.5-38.5,38.5,17.2,38.5,38.5Z"/><path class="cls-3" d="M781.36,50.8c0,21.3-17.2,38.5-38.5,38.5s-38.5-17.2-38.5-38.5,17.2-38.5,38.5-38.5,38.5,17.2,38.5,38.5Z"/><path class="cls-2" d="M1061.66,50.8c0,21.3-17.2,38.5-38.5,38.5s-38.5-17.2-38.5-38.5,17.2-38.5,38.5-38.5,38.5,17.2,38.5,38.5Z"/><circle class="cls-1" cx="449.76" cy="50.8" r="38.5"/></svg>