<svg viewBox="0 0 248 232" fill="none" xmlns="http://www.w3.org/2000/svg">
<path fill-rule="evenodd" clip-rule="evenodd" d="M234.537 146.118C236.701 144.988 238.814 143.761 240.893 142.483C242.358 141.606 241.061 139.398 239.559 140.196C238.791 140.604 238.026 141.016 237.258 141.422C237.863 140.901 238.423 140.334 238.925 139.717L238.89 139.682C240.826 137.947 238.339 134.673 236.138 136.098C234.196 137.506 232.236 138.943 230.007 139.87C225.391 141.828 220.299 142.152 215.344 142.209C213.53 142.073 211.798 142.387 210.039 142.737C210.729 139.969 212.455 137.878 213.371 135.197C214.046 132.49 210.14 130.646 208.756 133.248C208.416 133.887 208.092 134.534 207.776 135.183C204.784 137.906 199.788 137.666 196.77 140.589C195.051 142.115 194.21 144.186 193.878 146.264C193.652 147.675 194.003 149.09 193.15 150.34C189.026 156.175 182.511 165.398 179.201 171.819C176.859 156.56 170.603 137.687 164.14 123.734C162.003 119.272 159.558 114.912 156.348 111.129C156.712 109.868 155.428 107.629 154.611 108.318C152.098 105.247 147.655 104.451 144.082 102.924C139.26 100.861 135.258 96.5731 133.292 91.7001C130.764 82.4191 124.543 81.2401 115.915 81.6501C107.658 81.6401 101.549 85.1731 99.7471 93.5821C96.0871 99.9641 87.4449 98.9081 81.2275 100.598C76.6708 101.639 72.2488 103.249 68.0463 105.293C63.3711 100.857 46.6271 119.476 45.1051 124.267C46.0011 124.441 46.8916 124.65 47.7741 124.905C48.56 125.132 48.23 126.32 47.4373 126.13C46.4509 125.893 45.4582 125.73 44.4608 125.617C44.4303 125.712 44.4037 125.807 44.3839 125.901C44.2719 125.893 44.1601 125.883 44.0482 125.876C44.2964 126.005 44.5353 126.155 44.7682 126.349C45.331 126.816 44.5983 127.718 44.0002 127.346C43.4368 126.924 42.6988 126.991 42.023 126.849C41.9828 128.239 37.0237 126.684 36.2534 126.223C32.8299 125.795 29.3078 126.255 26.1118 124.603C21.8592 123.707 17.5746 122.716 13.3698 121.575C12.2566 122.009 11.2104 123.563 12.0946 124.703C12.5919 125.222 11.9526 126.069 11.3264 125.7C9.22616 124.463 7.60196 122.533 6.22486 120.453C5.57676 119.799 4.42616 119.94 3.55536 119.668C3.43886 119.877 3.37026 120.111 3.37126 120.35C-0.322742 120.958 2.31246 124.994 4.16946 126.252C3.18436 126.894 3.14696 128.15 3.23316 129.2C3.02436 129.573 2.95466 130.037 3.13636 130.455C3.83106 132.057 5.33336 133.405 6.47566 134.703C7.73696 136.136 8.86146 137.576 10.3962 138.738C16.2458 143.199 23.3049 145.692 30.5467 146.668C33.118 147.063 36.8167 147.668 38.4088 149.843C38.0182 152.424 37.3009 154.9 36.6502 157.417C35.7403 160.759 35.8022 164.257 35.7901 167.663C35.663 167.561 35.4187 167.582 35.3824 167.777C35.1707 169.189 35.0133 170.633 34.1554 171.819C33.4032 174.026 32.9027 176.379 32.6215 178.697C31.4951 189.686 31.2261 201 33.766 211.818C34.7461 215.831 36.3401 219.645 38.5119 223.157C39.1594 224.205 40.2006 224.512 41.1354 224.306C44.2643 225.932 48.2059 226.453 51.5784 226.04C63.0758 222.784 59.0697 230.625 75.1901 228.224C103.015 224.678 131.136 231.646 158.902 227.555C159.586 232.839 168.538 231.323 171.648 229.089C180.972 222.155 185.602 200.201 190.281 189.064C193.498 180.285 198.884 164.738 205.937 158.847C208.052 157.192 210.609 156.321 213.167 155.618C222.714 153.157 232.297 150.83 241.862 148.437C243.484 148.037 243.193 145.27 241.458 145.447C239.156 145.683 236.846 145.896 234.537 146.118Z" fill="white"/>
<path fill-rule="evenodd" clip-rule="evenodd" d="M22.0127 144.472C21.3662 144.392 20.7324 144.162 20.1028 143.98C19.1415 143.699 18.1993 143.371 17.2718 142.997C15.3577 142.23 13.5007 141.323 11.7599 140.214C8.94787 138.419 6.46337 136.12 4.58937 133.351L4.46077 133.158C3.39097 131.528 1.41747 127.908 3.63027 126.67C2.20417 125.478 0.856268 123.337 0.932268 121.685C1.04007 119.347 3.90487 119.379 5.38577 120.37C6.35557 121.019 7.08227 121.928 7.81117 122.822C8.61817 123.815 9.48017 124.762 10.376 125.673C10.6137 125.914 10.8537 126.15 11.0979 126.382L11.3436 126.613C11.3056 126.522 11.2718 126.429 11.2422 126.334C10.7478 124.794 11.3373 122.788 12.8774 122.082C13.8199 121.65 14.7987 121.914 15.7121 122.28L15.852 122.338C17.0816 122.847 18.326 123.297 19.6063 123.659C24.8246 125.132 30.2711 125.377 35.6182 126.112C37.6781 126.398 39.776 126.757 41.8253 127.285C42.6069 123.965 44.5231 120.782 46.602 118.164C56.5569 105.637 72.9745 101.496 87.9935 98.8171C89.3621 98.5741 90.4971 100.387 91.2941 99.9581C92.8041 99.1461 94.1331 97.9961 95.2991 96.7471C97.7861 94.0821 99.5501 90.9481 101.622 87.9781C102.647 86.5121 105.005 87.8241 104.054 89.3991L103.588 90.1681C101.671 93.3201 99.5471 96.5691 96.7971 99.0131C95.3351 100.311 93.7131 101.336 91.8581 101.976C90.4531 102.46 88.4817 102.868 86.9436 102.399L86.7591 102.13C86.8201 102.22 86.8816 102.309 86.9436 102.399C90.9581 108.217 95.9941 113.142 101.301 117.789C106.658 122.478 112.437 126.676 118.25 130.782L118.735 131.123C128.206 124.213 136.207 115.198 141.82 104.899C140.644 104.757 139.479 104.003 138.474 103.441C137.263 102.76 136.125 101.949 135.237 100.867C133.304 98.5101 133.556 95.4731 133.207 92.6131C133.186 92.4361 133.42 92.3911 133.528 92.4801C134.576 93.3511 134.944 94.7781 135.381 96.0101C135.863 97.3641 136.408 98.4811 137.513 99.4341C138.541 100.321 139.796 100.974 141.015 101.556C141.644 101.854 144.765 102.62 145.12 103.255C150.512 101.989 155.764 104.176 159.759 107.867C163.619 111.432 166.452 116.067 168.953 120.643C171.622 125.525 173.808 130.614 175.693 135.845C177.603 141.154 179.067 146.58 179.872 152.168C180.551 156.879 180.968 161.664 181.237 166.428L181.27 167.023C185.259 160.761 189.347 154.564 193.52 148.422C192.571 145.888 193.621 143.301 195.398 141.344C197.367 139.178 200.09 138.172 202.695 137.001L203.037 136.846C204.293 136.273 205.544 135.642 206.629 134.784C207.672 133.956 208.439 132.814 209.538 132.051C211.135 130.94 214.034 131.176 214.108 133.605C214.146 134.939 213.573 136.401 213.049 137.599C212.455 138.954 211.655 140.182 210.704 141.311C210.66 141.363 210.612 141.405 210.563 141.438L210.527 141.461C211.841 141.678 213.165 141.854 214.515 141.915C217.239 142.04 219.991 141.839 222.658 141.264C225.387 140.677 228.032 139.721 230.487 138.39C232.585 137.253 234.529 135.782 236.912 135.435C237.131 135.401 237.353 135.38 237.581 135.367C237.962 135.346 238.342 135.794 238.192 136.17C238.11 136.378 238.023 136.583 237.928 136.79C237.104 138.605 235.84 140.366 234.264 141.703L234.142 141.805C234.698 141.613 235.245 141.397 235.784 141.154C238.951 139.728 241.824 137.572 245.219 136.705C245.379 136.663 245.542 136.625 245.705 136.589C246.755 136.363 247.308 137.504 246.691 138.286C246.592 138.413 246.493 138.538 246.389 138.662C244.875 140.543 243.203 142.289 241.361 143.857C240.729 144.394 240.079 144.914 239.415 145.411C239.136 145.621 238.855 145.827 238.571 146.03L238.431 146.129C238.762 145.895 239.09 145.656 239.415 145.411C241.494 144.781 243.543 144.035 245.548 143.209C246.345 142.881 246.964 143.688 247.048 144.352C247.332 146.575 244.864 148.184 243.258 149.253C241.648 150.327 239.876 151.143 238.061 151.798C234.572 153.059 230.907 153.632 227.248 154.145L225.471 154.393C218.436 155.377 211.089 156.554 206.041 162.029C203.212 165.098 201.298 168.911 199.547 172.662C197.798 176.41 196.262 180.256 194.804 184.124C193.293 188.127 191.977 192.204 190.579 196.247C189.294 199.959 187.76 203.624 186.24 207.252L186.001 207.825C182.774 215.535 178.921 222.797 173.551 229.234C172.665 230.297 171.235 228.789 172.053 227.736C177.67 220.491 181.579 211.942 184.805 203.414C186.273 199.533 187.503 195.56 188.914 191.658L189.754 189.341C190.875 186.251 192.006 183.165 193.186 180.1C194.679 176.221 196.321 172.39 198.199 168.682L198.398 168.292C200.237 164.716 202.422 161.191 205.429 158.485C210.841 153.611 218.042 152.442 225.006 151.516L227.196 151.227C230.14 150.836 233.092 150.404 235.955 149.617C237.607 149.164 239.221 148.585 240.738 147.786C241.342 147.469 241.932 147.121 242.502 146.74C240.875 147.218 239.225 147.609 237.546 147.915C236.724 148.065 235.91 148.177 235.099 148.256C233.01 148.463 230.937 148.454 228.797 148.342C228.615 148.331 228.556 148.046 228.751 148.01C230.241 147.745 231.733 147.414 233.219 147.054L233.665 146.945C233.673 146.698 233.77 146.436 233.973 146.187C234.713 145.286 236.117 144.825 237.091 144.189C238.112 143.523 239.101 142.805 240.043 142.035C240.905 141.332 241.733 140.588 242.529 139.81L242.768 139.575C242.689 139.654 242.609 139.732 242.529 139.81C240.379 140.804 238.34 142.078 236.094 142.864C234.309 143.492 232.437 143.914 230.548 144.064L230.431 144.074L230.314 144.081C228.343 144.223 226.359 144.166 224.417 144.593C224.2 144.641 224.132 144.35 224.327 144.267C226.023 143.561 227.787 143.289 229.57 142.959C229.608 142.82 229.705 142.695 229.874 142.615L230.331 142.397C231.689 141.744 232.956 141.085 234.085 140.026C235.082 139.089 235.913 137.995 236.536 136.781C234.041 137.329 231.85 139.22 229.581 140.283C227.109 141.444 224.493 142.276 221.806 142.75L221.5 142.803C216.478 143.641 210.439 143.534 205.94 140.922C205.796 140.837 205.9 140.645 206.048 140.668C207.324 140.877 208.587 141.125 209.851 141.344C209.603 141.118 209.493 140.712 209.779 140.387C210.913 139.086 211.811 137.599 212.384 135.972L212.494 135.654C212.758 134.899 213.205 133.728 212.749 133.047C212.314 132.398 211.289 132.487 210.677 132.761C209.403 133.336 208.555 134.772 207.482 135.638C206.312 136.585 204.981 137.286 203.618 137.914L203.33 138.045C200.973 139.106 198.455 139.998 196.602 141.871C195.605 142.877 194.747 144.134 194.46 145.544C194.329 146.191 194.329 146.856 194.502 147.497C194.639 147.998 194.927 148.306 194.762 148.816C194.546 149.473 193.784 150.259 193.391 150.845C192.934 151.521 192.48 152.199 192.026 152.878C191.12 154.235 190.217 155.596 189.315 156.955C187.511 159.677 185.726 162.412 183.955 165.155C183.379 166.048 182.805 166.943 182.233 167.838L181.376 169.181L180.923 169.89L180.151 171.104C180.178 171.217 180.176 171.335 180.14 171.438C180.008 171.814 179.762 172.07 179.455 172.256L179.401 172.288C174.892 179.417 170.455 186.592 165.974 193.738C165.736 195.919 165.512 198.102 165.317 200.286C164.876 205.227 164.574 210.181 164.477 215.141C164.43 217.543 164.622 219.958 164.726 222.357C164.777 223.502 164.846 224.645 164.937 225.789L165.003 226.599C165.092 227.712 165.143 228.818 164.743 229.879C164.388 230.811 163.306 231.02 162.666 230.31C154.315 229.974 145.957 229.718 137.599 229.56C122.639 229.272 107.673 229.317 92.7111 229.606C85.1964 229.752 77.6795 229.957 70.1668 230.211C66.4654 230.333 62.7619 230.507 59.0584 230.557C57.063 230.585 53.9226 229.858 53.7616 227.612L53.7577 227.544C53.5084 227.611 53.2506 227.666 52.9865 227.706C52.869 227.724 52.7561 227.719 52.6518 227.695L52.5999 227.681C49.6256 228.588 45.8631 227.294 43.0368 226.54L42.8035 226.478C40.1056 225.775 37.938 224.768 36.1697 222.532C33.0746 218.616 32.0183 213.358 31.469 208.511C30.9535 203.95 30.9239 199.305 31.5514 194.753C31.1816 191.044 31.5429 187.216 31.9633 183.528C32.1704 181.704 32.4133 179.882 32.7049 178.069C32.8676 177.056 33.0809 176.054 33.2985 175.055C33.3854 174.655 33.4578 174.225 33.5679 173.809L33.6175 173.632C33.2795 173.677 32.9098 173.603 32.5527 173.406C31.7035 172.939 31.4563 171.994 31.4415 171.09C31.395 168.363 31.7204 165.559 32.0077 162.849C32.2971 160.144 32.6943 157.428 33.214 154.757L33.3485 154.068C33.7423 152.069 34.1929 150.006 34.9866 148.129C32.0056 147.622 29.0331 147.083 26.1408 146.165C24.7296 145.715 23.3394 145.155 22.0127 144.472ZM177.603 172.846C177.556 172.857 177.512 172.869 177.467 172.882C176.276 173.216 175.072 173.499 173.872 173.804C171.797 174.326 169.769 174.909 167.84 175.816C167.436 180.918 166.837 186.003 166.267 191.091L166.154 192.109C167.029 190.485 167.924 188.875 168.86 187.284C171.71 182.433 174.626 177.621 177.603 172.846ZM34.3442 173.351C34.3505 173.958 34.2238 174.588 34.1562 175.171C34.0463 176.118 33.9576 177.069 33.8456 178.016C33.6174 179.918 33.4231 181.822 33.2815 183.733C33.1907 184.952 33.1315 186.176 33.0787 187.4C34.2766 182.921 35.8632 178.54 37.3717 174.152C37.1195 174.126 36.8618 174.064 36.5959 173.993L36.1483 173.873C35.8844 173.805 35.0282 173.594 34.3442 173.351ZM181.376 169.181L181.384 169.382C181.416 170.094 180.989 170.496 180.472 170.599C180.772 170.126 181.074 169.653 181.376 169.181ZM44.3053 135.425C45.5666 135.536 46.8025 135.805 47.9813 136.27L48.0951 136.314C48.967 136.651 50.2419 137.074 50.5271 138.005C50.6074 138.269 50.3919 138.487 50.1447 138.508C49.1982 138.584 48.0828 137.57 47.206 137.227C46.2299 136.847 45.2074 136.563 44.1722 136.413C41.8461 136.073 39.4208 136.331 37.232 137.179C37.1032 137.229 37.0229 137.024 37.1391 136.963C39.3447 135.762 41.7975 135.203 44.3053 135.425ZM17.5783 141.469C17.4324 141.34 17.2867 141.205 17.143 141.07C16.0103 139.998 15.0073 138.747 14.2646 137.372L14.0691 137C13.4642 135.828 12.7215 134.159 14.143 133.315C14.9923 132.81 16.0148 132.937 16.9613 133.243C17.0226 133.262 17.0838 133.284 17.1451 133.305C17.5677 133.453 17.9754 133.63 18.3388 133.799C19.9169 134.524 21.3092 135.579 22.7669 136.509C24.3465 137.517 25.9061 138.162 27.7291 138.539L27.9008 138.574C29.612 138.912 31.4669 139.129 32.6606 140.537C32.9606 140.892 32.686 141.558 32.1684 141.382C28.8684 140.269 25.3761 140.023 22.3465 138.195C21.0916 137.439 19.9043 136.57 18.6219 135.853C17.9416 135.473 17.2392 135.14 16.4907 134.912L16.0818 134.791C15.8423 134.721 15.5564 134.652 15.3641 134.721C14.9982 134.848 15.115 135.044 15.2282 135.385L15.2395 135.42C16.1289 138.172 18.6641 140.476 21.0134 142C21.5522 142.35 22.1036 142.672 22.6655 142.97C26.4695 144.998 30.7259 145.942 34.9063 147.063C34.9063 147.063 37.3233 147.738 38.1241 147.991C39.0156 147.917 40.0318 148.232 40.7036 148.609C41.3564 148.974 41.8825 149.465 42.2797 150.042C42.2797 150.042 42.6621 150.361 42.7318 150.855C42.9325 151.314 43.0677 151.808 43.1353 152.324C43.1733 152.626 43.0973 152.859 42.9536 153.023C43.3857 159.658 41.5943 166.256 39.5746 172.561L39.3745 173.183L39.2459 173.577C37.0677 180.262 34.5684 186.899 33.4529 193.869C32.7072 198.525 32.7304 203.344 33.2776 208.021L33.3162 208.344C33.8553 212.766 34.8926 217.727 37.7036 221.286C39.1374 223.102 40.8361 223.909 43.0079 224.494L43.1269 224.526C45.0917 225.043 47.1198 225.777 49.1459 225.999C51.0262 226.204 52.6022 225.504 54.2945 224.849L54.2965 224.847C57.8607 221.691 59.479 217.097 60.6747 212.459C63.774 200.459 63.3895 188.002 61.6318 175.826C60.7149 169.465 59.4684 163.158 58.2261 156.853C57.605 153.702 56.9353 150.557 56.3797 147.395L56.0497 145.535C55.8676 144.501 55.6915 143.466 55.5409 142.427C55.3381 141.03 55.2769 139.656 55.2071 138.25C53.5001 135.42 51.0219 133.089 48.1508 131.417C46.0952 130.219 43.9191 129.388 41.6733 128.786C35.2529 127.055 28.2536 127.178 21.793 125.846C19.6227 125.399 17.5625 124.736 15.5034 123.941L15.2226 123.832C14.2782 123.464 13.3149 123.259 12.8458 124.373C12.512 125.166 12.7106 125.99 13.2113 126.656C14.4388 128.287 16.9064 129.044 18.7634 129.631C19.8811 129.986 21.0219 130.268 22.1754 130.477C23.3289 130.686 24.4867 130.739 25.5937 131.147C26.0205 131.303 26.105 131.982 25.5937 132.102C24.1909 132.43 22.7796 132.149 21.3853 131.876C19.8536 131.573 18.3451 131.145 16.8789 130.601C16.6085 130.502 16.3286 130.397 16.0436 130.285L15.8289 130.2C16.0508 130.361 16.2726 130.519 16.4965 130.678C16.5557 130.72 16.5198 130.832 16.4416 130.804C12.9941 129.518 9.85737 127.196 7.42727 124.45L7.30637 124.312C6.45077 123.331 4.50077 120.364 2.85707 121.19C1.31367 121.965 3.94467 124.953 4.94457 126.174L5.06067 126.317C6.19727 126.347 7.29797 127.055 8.21907 127.626C9.81837 128.617 11.4895 129.471 13.1924 130.27C16.5769 131.861 20.1705 132.983 23.5191 134.655C23.5635 134.679 23.5297 134.735 23.4874 134.729C21.3557 134.389 19.2473 133.846 17.1874 133.172L17.0955 133.143L17.0036 133.112C15.717 132.689 14.4473 132.212 13.1987 131.702C11.8107 131.136 10.4543 130.5 9.13807 129.779C7.94657 129.128 6.62407 127.955 5.24237 127.782C5.09447 127.763 4.96347 127.761 4.84937 127.772C3.26277 127.905 4.57477 130.534 5.01837 131.32C5.74307 132.611 6.61767 133.803 7.62127 134.892C9.65577 137.103 12.1213 138.855 14.7896 140.218C15.7001 140.683 16.6318 141.093 17.5783 141.469Z" fill="black"/>
<path fill-rule="evenodd" clip-rule="evenodd" d="M118.933 1.62866C128.392 1.62866 139.74 6.21586 140.705 6.30766L140.731 6.30906C141.239 6.30906 143.223 7.82086 146.682 10.8446L142.935 18.156L143.238 18.4457C144.69 19.8375 145.928 21.1061 146.906 22.1061C154.89 30.2715 156.325 62.3311 154.444 73.5111C152.562 84.6921 149.077 95.6321 132.852 95.6321C116.627 95.6321 98.576 85.8721 95.796 82.8331C93.942 80.8071 91.86 79.8361 89.549 79.9211C89.454 79.8011 89.36 79.6811 89.266 79.5621L88.926 79.5141C85.7285 79.0511 83.437 78.4271 82.0523 77.6431C79.3474 76.1121 76.3744 68.0641 76.3744 66.2911C76.3744 64.5361 71.935 51.7681 71.8463 50.4169L71.8449 50.3795C71.8449 49.25 66.0454 44.0576 66.0454 42.4086C66.0454 40.7596 64.8764 40.8597 66.0454 35.0489L66.385 33.3418C67.629 27.1551 70.0638 16.9106 79.3474 12.4591C89.549 7.56736 109.379 1.62866 118.933 1.62866Z" fill="white"/>
<path fill-rule="evenodd" clip-rule="evenodd" d="M77.7732 12.2295C82.8611 6.82696 111.746 -1.52944 126.36 0.241957L126.798 0.298758C127.964 0.446658 129.113 0.670758 130.248 0.975058C133.914 1.83166 137.701 3.12876 140.731 5.29526C143.26 7.06766 151.238 9.96206 148.886 14.5987C149.758 16.2513 150.084 18.2929 149.494 19.9205C149.42 20.4827 149.247 21.0005 149.025 21.5374C150.888 24.2872 152.363 27.397 153.557 30.3549C155.643 37.7989 156.941 45.5457 157.132 53.1402C157.764 67.5702 156.183 84.8061 143.62 94.1361C136.031 100.049 124.144 100.247 115.615 92.9162C115.131 92.3442 112.855 90.7972 113.615 90.5262C113.841 90.7652 114.073 90.9972 114.31 91.2262C114.299 91.2002 114.297 91.1751 114.302 91.1471L114.079 90.9462C113.66 90.5582 113.117 89.9951 113.735 90.1061C113.763 90.1371 113.792 90.1652 113.822 90.1962C113.953 90.2752 114.052 90.3432 114.129 90.4032L114.168 90.4352L114.156 90.4222C113.8 90.0422 113.586 89.6552 114.119 89.9022L114.189 89.9361C114.426 90.1861 114.667 90.4252 114.912 90.6572C114.908 90.6302 114.912 90.6022 114.927 90.5732L114.698 90.3521C114.475 90.1331 114.509 90.1321 114.618 89.9551C114.144 89.2911 115.029 89.6862 115.091 89.9452C115.645 89.8142 116.131 90.8541 116.488 90.9811C132.122 103.004 154.809 92.3352 154.442 58.8312L154.436 58.1762C154.328 47.4626 153.427 36.4514 148.998 26.7535C148.567 25.8193 148.085 24.9105 147.555 24.0313C147.19 23.3719 146.799 22.7294 146.378 22.1038C145.201 22.0087 144.039 21.7931 142.894 21.4592C142.501 21.3598 142.113 21.2499 141.724 21.121C136.045 21.4308 130.493 21.7679 124.798 22.0875L123.019 22.1983C118.195 22.5086 113.206 23.0055 109.313 25.9905C105.494 28.7081 105.476 34.0668 102.206 37.0505C97.5441 40.2163 97.5101 43.071 96.6121 47.7363C96.6781 51.2532 99.1161 56.3632 94.6431 57.8432C95.3981 58.9192 94.3461 58.4022 94.2631 58.0252C94.2541 58.0272 94.2461 58.0292 94.2401 58.0292C94.9121 59.2792 93.9231 58.4922 93.8361 58.0902C93.7831 58.0752 93.7301 58.0372 93.6781 57.9852C94.3551 59.0802 93.2601 58.3132 93.3251 58.1132C92.0161 56.1002 89.3211 55.7882 87.4218 56.3212C87.3986 56.3932 87.3143 56.3992 87.2615 56.3612C79.1854 58.1122 81.2691 74.8382 89.5451 73.2212C89.8991 73.1482 89.8911 73.3192 89.9611 73.3352C89.7701 72.8332 90.3091 73.0372 90.3031 73.1432L90.3361 73.1412C90.3621 73.1392 90.3521 73.1362 90.3711 73.1432C90.1861 72.1162 91.2261 73.6042 91.1441 73.6652C91.1761 73.6462 91.2121 73.6352 91.2441 73.6312L91.2081 73.5332C91.0351 73.0732 91.0501 73.2642 91.0511 73.0012C90.9221 72.6752 90.9121 72.8182 90.9431 72.6062C91.3981 72.2522 91.5331 73.3242 91.6851 73.4032C91.4241 73.0392 91.6321 72.7422 91.8781 72.9392C93.7421 76.8622 96.1491 80.5472 99.2611 83.4502C99.6021 83.7192 99.9461 83.9832 100.303 84.2322C101.626 85.3852 103.657 86.1271 104.896 87.1491C104.896 87.1661 104.887 87.1872 104.875 87.2082L104.903 87.2342L104.932 87.2611L105.363 87.4681C105.49 87.5761 105.604 87.6962 105.705 87.8292C105.813 87.9542 105.908 88.0912 105.988 88.2372C106.028 88.4152 105.94 88.4892 105.771 88.4132C105.696 88.3872 105.623 88.3581 105.549 88.3301C105.553 88.3371 105.555 88.3412 105.559 88.3452C105.584 88.3822 105.748 88.7622 105.559 88.7002L105.536 88.6922C105.432 88.6542 105.329 88.6112 105.228 88.5712C105.348 88.7212 105.458 88.8842 105.555 89.0212C105.659 89.1292 105.722 89.2562 105.747 89.4002C105.743 89.4802 105.699 89.5142 105.618 89.5032C105.496 89.4632 105.375 89.4212 105.255 89.3762L105.289 89.4422C105.374 89.6102 105.495 89.8912 105.28 89.7972C105.096 89.7402 104.919 89.6742 104.742 89.6032C104.727 89.6322 104.697 89.6432 104.638 89.6152C104.074 89.4142 103.529 89.1691 103.007 88.8801C102.549 88.5461 102.086 88.2181 101.625 87.8861C101.192 87.6261 100.774 87.3371 100.375 87.0111C97.7031 85.2851 95.3641 83.0922 93.5091 80.6502C90.4051 83.3382 84.2006 80.7702 80.3625 78.6652C76.9677 76.7842 75.6333 73.3062 75.2883 69.5562C74.5711 64.5082 70.4471 62.7802 70.734 51.7032C70.7277 51.7052 70.7211 51.7052 70.7127 51.7052C70.5627 51.6612 70.4171 51.6022 70.2798 51.5262C70.1382 51.4582 70.0051 51.3782 69.8803 51.2802L69.7261 51.0672C69.646 51.0228 69.5742 50.9763 69.5192 50.9298L69.4907 50.9666C69.4006 51.0755 69.4612 50.9117 69.4664 50.8791L69.1985 50.5146C68.5632 49.647 67.8663 48.6734 67.2986 47.8949L67.2807 47.9265C67.2679 47.9504 67.2611 47.9676 67.2671 47.9752C65.9161 46.0333 64.6455 43.6877 64.2925 41.417C63.8756 39.6678 64.0385 37.8654 64.4021 36.2452C65.9611 30.5715 71.0678 17.7324 77.7732 12.2295ZM114.438 90.6942L114.353 90.6182L114.428 90.7122C114.467 90.7602 114.507 90.8032 114.572 90.8472C114.568 90.8332 114.568 90.8182 114.57 90.8012C114.526 90.7682 114.482 90.7322 114.438 90.6942ZM126.295 3.09276C116.385 2.24036 106.638 4.42445 97.1811 7.06825L96.5281 7.25586C91.1511 8.79076 85.4655 10.172 80.9214 13.4574C74.5726 18.3221 71.2941 26.0609 68.4331 33.206C65.9349 38.5147 67.212 44.5008 70.9768 48.2076C71.3685 44.524 72.0363 40.9482 73.08 37.4011C73.2978 36.8469 73.133 36.6654 73.6024 36.5931C74.3115 46.152 70.8194 53.2142 77.73 64.5432C80.7285 69.8892 77.2574 73.8002 85.725 76.6132L85.9541 76.7002C87.7182 77.3662 89.6451 77.8922 91.3721 77.5202L91.2181 77.2682C91.0601 77.0082 91.0121 76.8822 91.2411 76.7712C91.2351 76.7592 91.2271 76.7462 91.2181 76.7312C91.0331 76.3802 90.8531 76.0252 90.6821 75.6662C90.6121 75.6892 90.5421 75.7062 90.4701 75.7252C90.5171 75.8122 90.5231 75.8992 90.3921 75.9282C89.9271 76.0882 89.4491 76.1522 88.9591 76.1222L88.8541 76.1142C88.3016 76.0802 87.9532 75.9792 87.6416 75.8862C87.5383 75.8692 87.4348 75.8522 87.3331 75.8312C86.3307 75.6092 85.2695 75.0432 84.5827 74.4832C76.7535 70.0342 77.5627 54.8912 87.2129 53.4592C87.4109 43.9253 91.9441 27.8398 99.4671 18.7545C106.267 10.3975 124.832 6.77536 137.748 8.05256C137.937 8.11486 138.125 8.17786 138.313 8.24146C140.306 8.41856 142.205 9.30666 144.199 9.71926C142.767 8.64576 141.143 7.93076 139.47 7.32316C136.137 5.28346 132.315 4.17976 128.623 3.40136C127.859 3.21326 127.083 3.10966 126.295 3.09276ZM86.771 61.1192C87.2899 60.8372 87.2305 61.1092 87.3499 61.0302C91.0821 60.7252 95.1061 63.9942 97.1931 66.7202C97.0281 66.8912 96.5821 66.3842 96.5041 66.3032C96.4931 66.3142 96.4811 66.3222 96.4681 66.3262L96.5261 66.4092C97.3721 67.6222 95.6951 66.1942 95.5391 65.9002C95.5111 65.9142 95.4841 65.9232 95.4521 65.9162C95.5851 66.0472 95.9911 66.3872 96.0601 66.6292L96.1681 66.7182C97.1831 67.5872 97.0981 68.2412 95.9461 67.0072C95.9741 67.0642 95.9841 67.1172 95.9651 67.1592L96.0051 67.1862C96.5711 67.5822 97.0371 68.6852 95.8531 67.5522C95.9761 68.3802 94.6801 66.7802 94.6391 66.7912C92.3951 65.0302 89.0931 63.3172 86.2788 63.0862L86.1819 63.0752C85.6656 63.0092 85.4214 62.8562 85.6027 62.5182C84.9668 62.3672 85.1157 62.0532 85.4168 62.0642C84.9683 61.7692 85.372 61.4862 85.6323 61.5962C85.4533 61.1012 86.171 61.4312 86.2365 61.3622C86.609 60.7872 86.7093 61.2672 86.771 61.1192ZM78.9478 30.3993C80.7404 29.7424 86.0354 31.7088 85.6118 34.313C85.3596 34.911 84.5284 35.2535 83.9443 34.916L83.1819 34.4038C81.855 33.5148 80.6584 32.7354 79.2339 31.9601C78.4585 31.5752 78.1247 30.7581 78.9478 30.3993ZM89.1471 26.5292L88.4545 26.0785C84.7184 23.6324 79.4369 19.926 88.8031 23.7607C89.8711 24.2187 91.2891 24.4897 91.8721 25.5067C92.7871 27.3811 90.3791 27.5071 89.1471 26.5292ZM89.5661 15.554C89.2671 14.4159 92.9971 15.7514 94.0831 16.1035L94.2481 16.166C95.3051 16.5598 96.5161 16.925 97.1471 17.837C97.8881 19.0971 96.3891 19.3581 95.4611 18.7889C93.5581 17.5449 91.4721 16.6063 89.5661 15.554ZM99.0531 10.2523C96.9531 7.95836 102.572 10.1559 103.414 10.7658L103.438 10.7838C104.066 11.2262 103.939 12.179 103.349 12.4588C101.67 12.4907 100.434 11.0907 99.0531 10.2523ZM108.608 7.73906C105.27 5.33916 109.667 6.48066 111.194 7.42116C112.235 8.33946 111.163 9.88976 108.608 7.73906Z" fill="black"/>
<path fill-rule="evenodd" clip-rule="evenodd" d="M140.748 76.9551C142.083 76.6441 143.132 77.7751 142.87 79.0771C142.592 80.4561 141.11 80.9291 139.867 80.8851C138.458 80.8371 137.05 80.5461 135.634 80.4871C134.18 80.4271 132.72 80.4161 131.264 80.4551C129.918 80.4921 128.536 80.7291 127.201 80.5161C126.681 80.4331 126.73 79.7461 127.068 79.5021C128.073 78.7771 129.375 78.4811 130.56 78.1771C131.767 77.8671 133.002 77.6301 134.24 77.4851C135.496 77.3381 136.762 77.2641 138.026 77.2501C138.601 77.2431 139.306 77.3711 139.867 77.2681C140.153 77.2151 140.444 77.0261 140.748 76.9551ZM136.894 59.0441C138.489 60.0141 140.92 62.2761 139.204 64.6811C137.184 66.8021 134.275 64.3711 132.842 63.2711C131.513 62.4191 130.02 64.6111 131.253 65.6061C141.61 73.2771 145.813 59.2981 137.701 57.9041C136.808 57.7501 136.476 58.7441 136.894 59.0441ZM125.325 51.8001C127.46 51.4451 127.833 54.4881 125.718 54.7011C125.274 54.7461 124.833 54.7851 124.392 54.8231C124.435 54.9611 124.464 55.1031 124.479 55.2491C124.499 55.3731 124.514 55.5041 124.528 55.6541C124.595 56.4031 124.064 57.1821 123.444 57.5451C122.799 57.9221 121.874 57.9721 121.235 57.5451C120.905 57.3241 120.575 57.0751 120.393 56.7111C120.149 56.3361 120.016 55.9021 120.002 55.4571C119.03 55.7101 118.039 56.0521 117.056 56.2331C117.092 56.2681 117.128 56.3061 117.162 56.3481C117.189 56.3801 117.153 56.4391 117.114 56.4101L116.621 56.3011C116.47 56.3211 116.318 56.3371 116.167 56.3461L116.17 56.3331C115.918 56.3291 115.71 56.0301 115.937 55.7901C116.805 54.8721 118.159 54.2621 119.395 53.7521L120.584 53.2641C122.106 52.6461 123.712 52.0691 125.325 51.8001ZM142.494 52.7421C143.892 52.5821 145.276 52.6451 146.676 52.7311C149.032 52.8741 148.044 56.3121 146.152 55.5181C146.172 55.6441 146.177 55.7701 146.162 55.8871C146.088 56.4911 145.891 57.0021 145.337 57.3271C144.822 57.6281 144.17 57.6271 143.655 57.3271C143.103 57.0051 142.855 56.5521 142.714 55.9631C142.605 55.5061 142.649 55.1241 142.712 54.6711C142.733 54.5221 142.798 54.3821 142.888 54.2561C142.756 54.2231 142.624 54.1911 142.492 54.1621C141.316 53.8941 140.156 53.9481 138.984 53.7781C138.859 53.7601 138.839 53.5581 138.948 53.5071C140.002 53.0111 141.341 52.8731 142.494 52.7421ZM125.11 42.1254C125.917 41.8174 126.93 42.3295 127.342 43.034C127.809 43.8333 127.61 44.756 127.033 45.4296C126.148 46.4629 124.463 47.0994 123.221 47.689L123.122 47.7367C121.846 48.3522 120.536 48.9173 119.209 49.4098C117.903 49.8944 116.544 50.274 115.19 50.5999C114.477 50.7717 113.748 50.9137 113.018 51.0033C112.442 51.0739 111.998 50.9158 111.447 50.9158C111.367 50.9161 111.341 50.8093 111.407 50.7683C111.922 50.4445 112.304 50.0182 112.866 49.7183C113.45 49.4062 114.037 49.0993 114.626 48.7954C115.817 48.1812 116.964 47.4977 118.113 46.8097C119.324 46.0846 120.507 45.321 121.658 44.5035C122.785 43.7035 123.823 42.6168 125.11 42.1254ZM139.484 41.4676C140.492 41.2721 141.489 41.7489 141.787 42.7759C142.073 43.7597 141.774 43.9707 142.537 44.6747C143.145 45.2357 143.8 45.7365 144.461 46.2296L145.435 46.9535C147.198 48.2592 148.975 49.4936 151.003 50.3746C151.174 50.449 151.075 50.7036 150.912 50.707C147.69 50.7692 144.6 50.3327 141.691 48.8894C140.332 48.2152 138.967 47.3624 138.179 46.0165C137.267 44.458 137.294 41.8925 139.484 41.4676Z" fill="black"/>
</svg>
