<svg width="320" height="306" viewBox="0 0 320 306" fill="none" xmlns="http://www.w3.org/2000/svg">
<g clip-path="url(#clip0_927_3)">
<path d="M12.1116 24.3825C18.8006 24.3825 24.2231 18.9243 24.2231 12.1913C24.2231 5.45823 18.8006 2.61461e-06 12.1116 1.68436e-06C5.42253 7.54116e-07 -7.5908e-07 5.45822 -1.69545e-06 12.1913C-2.63182e-06 18.9243 5.42252 24.3825 12.1116 24.3825Z" fill="url(#paint0_radial_927_3)"/>
<path d="M12.1115 64.6135C18.8006 64.6135 24.2231 59.1553 24.2231 52.4222C24.2231 45.6892 18.8006 40.231 12.1115 40.231C5.42252 40.231 -6.35404e-06 45.6892 -7.29041e-06 52.4222C-8.22678e-06 59.1553 5.42252 64.6135 12.1115 64.6135Z" fill="url(#paint1_radial_927_3)"/>
<path d="M12.1115 104.845C18.8006 104.845 24.2231 99.3863 24.2231 92.6533C24.2231 85.9203 18.8006 80.4621 12.1115 80.4621C5.42252 80.4621 -1.1949e-05 85.9203 -1.28854e-05 92.6533C-1.38217e-05 99.3863 5.42251 104.845 12.1115 104.845Z" fill="url(#paint2_radial_927_3)"/>
<path d="M12.1115 145.076C18.8006 145.076 24.2231 139.617 24.2231 132.884C24.2231 126.151 18.8006 120.693 12.1115 120.693C5.42251 120.693 -1.7544e-05 126.151 -1.84804e-05 132.884C-1.94167e-05 139.617 5.42251 145.076 12.1115 145.076Z" fill="url(#paint3_radial_927_3)"/>
<path d="M12.1115 185.307C18.8006 185.307 24.2231 179.849 24.2231 173.115C24.2231 166.382 18.8006 160.924 12.1115 160.924C5.4225 160.924 -2.3139e-05 166.382 -2.40753e-05 173.115C-2.50117e-05 179.848 5.4225 185.307 12.1115 185.307Z" fill="url(#paint4_radial_927_3)"/>
<path d="M12.1115 225.538C18.8005 225.538 24.2231 220.08 24.2231 213.347C24.2231 206.614 18.8006 201.155 12.1115 201.155C5.4225 201.155 -2.87339e-05 206.614 -2.96703e-05 213.347C-3.06067e-05 220.08 5.4225 225.538 12.1115 225.538Z" fill="url(#paint5_radial_927_3)"/>
<path d="M52.0797 24.3825C58.7687 24.3825 64.1912 18.9243 64.1912 12.1913C64.1912 5.45823 58.7687 8.17302e-06 52.0797 7.24277e-06C45.3907 6.31252e-06 39.9681 5.45823 39.9681 12.1913C39.9681 18.9243 45.3907 24.3825 52.0797 24.3825Z" fill="url(#paint6_radial_927_3)"/>
<path d="M52.0797 64.6135C58.7687 64.6135 64.1912 59.1553 64.1912 52.4222C64.1912 45.6892 58.7687 40.231 52.0797 40.231C45.3906 40.231 39.9681 45.6892 39.9681 52.4222C39.9681 59.1553 45.3906 64.6135 52.0797 64.6135Z" fill="url(#paint7_radial_927_3)"/>
<path d="M52.0797 104.845C58.7687 104.845 64.1912 99.3863 64.1912 92.6533C64.1912 85.9203 58.7687 80.4621 52.0797 80.4621C45.3906 80.4621 39.9681 85.9203 39.9681 92.6533C39.9681 99.3863 45.3906 104.845 52.0797 104.845Z" fill="url(#paint8_radial_927_3)"/>
<path d="M52.0797 145.076C58.7687 145.076 64.1912 139.617 64.1912 132.884C64.1912 126.151 58.7687 120.693 52.0797 120.693C45.3906 120.693 39.9681 126.151 39.9681 132.884C39.9681 139.617 45.3906 145.076 52.0797 145.076Z" fill="url(#paint9_radial_927_3)"/>
<path d="M52.0797 185.307C58.7687 185.307 64.1912 179.849 64.1912 173.115C64.1912 166.382 58.7687 160.924 52.0797 160.924C45.3906 160.924 39.9681 166.382 39.9681 173.115C39.9681 179.849 45.3906 185.307 52.0797 185.307Z" fill="url(#paint10_radial_927_3)"/>
<path d="M92.0478 24.3825C98.7368 24.3825 104.159 18.9243 104.159 12.1913C104.159 5.45824 98.7368 1.37314e-05 92.0478 1.28012e-05C85.3588 1.18709e-05 79.9363 5.45823 79.9363 12.1913C79.9363 18.9243 85.3588 24.3825 92.0478 24.3825Z" fill="url(#paint11_radial_927_3)"/>
<path d="M92.0478 64.6135C98.7368 64.6135 104.159 59.1553 104.159 52.4222C104.159 45.6892 98.7368 40.231 92.0478 40.231C85.3588 40.231 79.9363 45.6892 79.9363 52.4222C79.9363 59.1553 85.3588 64.6135 92.0478 64.6135Z" fill="url(#paint12_radial_927_3)"/>
<path d="M92.0478 104.845C98.7368 104.845 104.159 99.3864 104.159 92.6533C104.159 85.9203 98.7368 80.4621 92.0478 80.4621C85.3588 80.4621 79.9363 85.9203 79.9363 92.6533C79.9363 99.3864 85.3588 104.845 92.0478 104.845Z" fill="url(#paint13_radial_927_3)"/>
<path d="M92.0478 145.076C98.7368 145.076 104.159 139.617 104.159 132.884C104.159 126.151 98.7368 120.693 92.0478 120.693C85.3588 120.693 79.9362 126.151 79.9362 132.884C79.9362 139.617 85.3588 145.076 92.0478 145.076Z" fill="url(#paint14_radial_927_3)"/>
<path d="M92.0478 185.307C98.7368 185.307 104.159 179.849 104.159 173.115C104.159 166.382 98.7368 160.924 92.0478 160.924C85.3588 160.924 79.9362 166.382 79.9362 173.115C79.9362 179.849 85.3588 185.307 92.0478 185.307Z" fill="url(#paint15_radial_927_3)"/>
<path d="M92.0478 225.538C98.7368 225.538 104.159 220.08 104.159 213.347C104.159 206.614 98.7368 201.155 92.0478 201.155C85.3588 201.155 79.9362 206.614 79.9362 213.347C79.9362 220.08 85.3587 225.538 92.0478 225.538Z" fill="url(#paint16_radial_927_3)"/>
<path d="M92.0478 265.769C98.7368 265.769 104.159 260.311 104.159 253.578C104.159 246.845 98.7368 241.386 92.0478 241.386C85.3587 241.386 79.9362 246.845 79.9362 253.578C79.9362 260.311 85.3587 265.769 92.0478 265.769Z" fill="url(#paint17_radial_927_3)"/>
<path d="M92.0478 306C98.7368 306 104.159 300.542 104.159 293.809C104.159 287.076 98.7368 281.617 92.0478 281.617C85.3587 281.617 79.9362 287.076 79.9362 293.809C79.9362 300.542 85.3587 306 92.0478 306Z" fill="url(#paint18_radial_927_3)"/>
<path d="M132.016 24.3825C138.705 24.3825 144.127 18.9243 144.128 12.1913C144.128 5.45824 138.705 1.92898e-05 132.016 1.83596e-05C125.327 1.74293e-05 119.904 5.45824 119.904 12.1913C119.904 18.9243 125.327 24.3825 132.016 24.3825Z" fill="url(#paint19_radial_927_3)"/>
<path d="M132.016 64.6135C138.705 64.6135 144.127 59.1553 144.127 52.4222C144.127 45.6892 138.705 40.231 132.016 40.231C125.327 40.231 119.904 45.6892 119.904 52.4222C119.904 59.1553 125.327 64.6135 132.016 64.6135Z" fill="url(#paint20_radial_927_3)"/>
<path d="M132.016 104.845C138.705 104.845 144.127 99.3864 144.127 92.6533C144.127 85.9203 138.705 80.4621 132.016 80.4621C125.327 80.4621 119.904 85.9203 119.904 92.6533C119.904 99.3864 125.327 104.845 132.016 104.845Z" fill="url(#paint21_radial_927_3)"/>
<path d="M132.016 145.076C138.705 145.076 144.127 139.617 144.127 132.884C144.127 126.151 138.705 120.693 132.016 120.693C125.327 120.693 119.904 126.151 119.904 132.884C119.904 139.617 125.327 145.076 132.016 145.076Z" fill="url(#paint22_radial_927_3)"/>
<path d="M132.016 185.307C138.705 185.307 144.127 179.849 144.127 173.115C144.127 166.382 138.705 160.924 132.016 160.924C125.327 160.924 119.904 166.382 119.904 173.115C119.904 179.849 125.327 185.307 132.016 185.307Z" fill="url(#paint23_radial_927_3)"/>
<path d="M132.016 225.538C138.705 225.538 144.127 220.08 144.127 213.347C144.127 206.614 138.705 201.155 132.016 201.155C125.327 201.155 119.904 206.614 119.904 213.347C119.904 220.08 125.327 225.538 132.016 225.538Z" fill="url(#paint24_radial_927_3)"/>
<path d="M132.016 265.769C138.705 265.769 144.127 260.311 144.127 253.578C144.127 246.845 138.705 241.386 132.016 241.386C125.327 241.386 119.904 246.845 119.904 253.578C119.904 260.311 125.327 265.769 132.016 265.769Z" fill="url(#paint25_radial_927_3)"/>
<path d="M171.984 24.3825C178.673 24.3825 184.096 18.9243 184.096 12.1913C184.096 5.45825 178.673 2.48482e-05 171.984 2.3918e-05C165.295 2.29877e-05 159.873 5.45824 159.873 12.1913C159.873 18.9243 165.295 24.3825 171.984 24.3825Z" fill="url(#paint26_radial_927_3)"/>
<path d="M171.984 64.6135C178.673 64.6135 184.096 59.1553 184.096 52.4222C184.096 45.6892 178.673 40.231 171.984 40.231C165.295 40.231 159.873 45.6892 159.873 52.4222C159.873 59.1553 165.295 64.6135 171.984 64.6135Z" fill="url(#paint27_radial_927_3)"/>
<path d="M171.984 104.845C178.673 104.845 184.096 99.3864 184.096 92.6533C184.096 85.9203 178.673 80.4621 171.984 80.4621C165.295 80.4621 159.873 85.9203 159.873 92.6533C159.873 99.3864 165.295 104.845 171.984 104.845Z" fill="url(#paint28_radial_927_3)"/>
<path d="M171.984 145.076C178.673 145.076 184.096 139.617 184.096 132.884C184.096 126.151 178.673 120.693 171.984 120.693C165.295 120.693 159.873 126.151 159.873 132.884C159.873 139.617 165.295 145.076 171.984 145.076Z" fill="url(#paint29_radial_927_3)"/>
<path d="M171.984 185.307C178.673 185.307 184.096 179.849 184.096 173.115C184.096 166.382 178.673 160.924 171.984 160.924C165.295 160.924 159.873 166.382 159.873 173.115C159.873 179.849 165.295 185.307 171.984 185.307Z" fill="url(#paint30_radial_927_3)"/>
<path d="M211.952 24.3825C218.641 24.3825 224.064 18.9243 224.064 12.1913C224.064 5.45825 218.641 3.04066e-05 211.952 2.94764e-05C205.263 2.85461e-05 199.841 5.45825 199.841 12.1913C199.841 18.9243 205.263 24.3825 211.952 24.3825Z" fill="url(#paint31_radial_927_3)"/>
<path d="M211.952 64.6135C218.641 64.6135 224.064 59.1553 224.064 52.4222C224.064 45.6892 218.641 40.231 211.952 40.231C205.263 40.231 199.841 45.6892 199.841 52.4222C199.841 59.1553 205.263 64.6135 211.952 64.6135Z" fill="url(#paint32_radial_927_3)"/>
<path d="M211.952 104.845C218.641 104.845 224.064 99.3864 224.064 92.6533C224.064 85.9203 218.641 80.4621 211.952 80.4621C205.263 80.4621 199.841 85.9203 199.841 92.6533C199.841 99.3864 205.263 104.845 211.952 104.845Z" fill="url(#paint33_radial_927_3)"/>
<path d="M211.952 145.076C218.641 145.076 224.064 139.617 224.064 132.884C224.064 126.151 218.641 120.693 211.952 120.693C205.263 120.693 199.841 126.151 199.841 132.884C199.841 139.617 205.263 145.076 211.952 145.076Z" fill="url(#paint34_radial_927_3)"/>
<path d="M211.952 185.307C218.641 185.307 224.064 179.849 224.064 173.115C224.064 166.382 218.641 160.924 211.952 160.924C205.263 160.924 199.841 166.382 199.841 173.115C199.841 179.849 205.263 185.307 211.952 185.307Z" fill="url(#paint35_radial_927_3)"/>
<path d="M211.952 225.538C218.641 225.538 224.064 220.08 224.064 213.347C224.064 206.614 218.641 201.155 211.952 201.155C205.263 201.155 199.841 206.614 199.841 213.347C199.841 220.08 205.263 225.538 211.952 225.538Z" fill="url(#paint36_radial_927_3)"/>
<path d="M251.92 24.3825C258.609 24.3825 264.032 18.9243 264.032 12.1913C264.032 5.45826 258.609 3.5965e-05 251.92 3.50348e-05C245.231 3.41045e-05 239.809 5.45826 239.809 12.1913C239.809 18.9243 245.231 24.3825 251.92 24.3825Z" fill="url(#paint37_radial_927_3)"/>
<path d="M251.92 64.6135C258.609 64.6135 264.032 59.1553 264.032 52.4223C264.032 45.6892 258.609 40.231 251.92 40.231C245.231 40.231 239.809 45.6892 239.809 52.4222C239.809 59.1553 245.231 64.6135 251.92 64.6135Z" fill="url(#paint38_radial_927_3)"/>
<path d="M251.92 104.845C258.609 104.845 264.032 99.3864 264.032 92.6533C264.032 85.9203 258.609 80.4621 251.92 80.4621C245.231 80.4621 239.809 85.9203 239.809 92.6533C239.809 99.3864 245.231 104.845 251.92 104.845Z" fill="url(#paint39_radial_927_3)"/>
<path d="M251.92 145.076C258.609 145.076 264.032 139.617 264.032 132.884C264.032 126.151 258.609 120.693 251.92 120.693C245.231 120.693 239.809 126.151 239.809 132.884C239.809 139.617 245.231 145.076 251.92 145.076Z" fill="url(#paint40_radial_927_3)"/>
<path d="M251.92 185.307C258.609 185.307 264.032 179.849 264.032 173.115C264.032 166.382 258.609 160.924 251.92 160.924C245.231 160.924 239.809 166.382 239.809 173.115C239.809 179.849 245.231 185.307 251.92 185.307Z" fill="url(#paint41_radial_927_3)"/>
<path d="M251.92 225.538C258.609 225.538 264.032 220.08 264.032 213.347C264.032 206.614 258.609 201.155 251.92 201.155C245.231 201.155 239.809 206.614 239.809 213.347C239.809 220.08 245.231 225.538 251.92 225.538Z" fill="url(#paint42_radial_927_3)"/>
<path d="M251.92 265.769C258.609 265.769 264.032 260.311 264.032 253.578C264.032 246.845 258.609 241.386 251.92 241.386C245.231 241.386 239.809 246.845 239.809 253.578C239.809 260.311 245.231 265.769 251.92 265.769Z" fill="url(#paint43_radial_927_3)"/>
<path d="M291.888 24.3825C298.578 24.3825 304 18.9243 304 12.1913C304 5.45826 298.578 4.15234e-05 291.888 4.05932e-05C285.199 3.9663e-05 279.777 5.45826 279.777 12.1913C279.777 18.9243 285.199 24.3825 291.888 24.3825Z" fill="url(#paint44_radial_927_3)"/>
<path d="M291.888 64.6135C298.578 64.6135 304 59.1553 304 52.4223C304 45.6892 298.578 40.231 291.888 40.231C285.199 40.231 279.777 45.6892 279.777 52.4223C279.777 59.1553 285.199 64.6135 291.888 64.6135Z" fill="url(#paint45_radial_927_3)"/>
<path d="M291.888 104.845C298.578 104.845 304 99.3864 304 92.6533C304 85.9203 298.578 80.4621 291.888 80.4621C285.199 80.4621 279.777 85.9203 279.777 92.6533C279.777 99.3864 285.199 104.845 291.888 104.845Z" fill="url(#paint46_radial_927_3)"/>
</g>
<defs>
<radialGradient id="paint0_radial_927_3" cx="0" cy="0" r="1" gradientUnits="userSpaceOnUse" gradientTransform="translate(-244.5 249.5) rotate(-19.5303) scale(1091.82 388.544)">
<stop stop-color="#0577C8"/>
<stop offset="0.30343" stop-color="#B456D6"/>
<stop offset="0.558417" stop-color="#EA7AAF"/>
<stop offset="0.805348" stop-color="#EDA571"/>
<stop offset="1" stop-color="#FFBE3D"/>
</radialGradient>
<radialGradient id="paint1_radial_927_3" cx="0" cy="0" r="1" gradientUnits="userSpaceOnUse" gradientTransform="translate(-244.5 249.5) rotate(-19.5303) scale(1091.82 388.544)">
<stop stop-color="#0577C8"/>
<stop offset="0.30343" stop-color="#B456D6"/>
<stop offset="0.558417" stop-color="#EA7AAF"/>
<stop offset="0.805348" stop-color="#EDA571"/>
<stop offset="1" stop-color="#FFBE3D"/>
</radialGradient>
<radialGradient id="paint2_radial_927_3" cx="0" cy="0" r="1" gradientUnits="userSpaceOnUse" gradientTransform="translate(-244.5 249.5) rotate(-19.5303) scale(1091.82 388.544)">
<stop stop-color="#0577C8"/>
<stop offset="0.30343" stop-color="#B456D6"/>
<stop offset="0.558417" stop-color="#EA7AAF"/>
<stop offset="0.805348" stop-color="#EDA571"/>
<stop offset="1" stop-color="#FFBE3D"/>
</radialGradient>
<radialGradient id="paint3_radial_927_3" cx="0" cy="0" r="1" gradientUnits="userSpaceOnUse" gradientTransform="translate(-244.5 249.5) rotate(-19.5303) scale(1091.82 388.544)">
<stop stop-color="#0577C8"/>
<stop offset="0.30343" stop-color="#B456D6"/>
<stop offset="0.558417" stop-color="#EA7AAF"/>
<stop offset="0.805348" stop-color="#EDA571"/>
<stop offset="1" stop-color="#FFBE3D"/>
</radialGradient>
<radialGradient id="paint4_radial_927_3" cx="0" cy="0" r="1" gradientUnits="userSpaceOnUse" gradientTransform="translate(-244.5 249.5) rotate(-19.5303) scale(1091.82 388.544)">
<stop stop-color="#0577C8"/>
<stop offset="0.30343" stop-color="#B456D6"/>
<stop offset="0.558417" stop-color="#EA7AAF"/>
<stop offset="0.805348" stop-color="#EDA571"/>
<stop offset="1" stop-color="#FFBE3D"/>
</radialGradient>
<radialGradient id="paint5_radial_927_3" cx="0" cy="0" r="1" gradientUnits="userSpaceOnUse" gradientTransform="translate(-244.5 249.5) rotate(-19.5303) scale(1091.82 388.544)">
<stop stop-color="#0577C8"/>
<stop offset="0.30343" stop-color="#B456D6"/>
<stop offset="0.558417" stop-color="#EA7AAF"/>
<stop offset="0.805348" stop-color="#EDA571"/>
<stop offset="1" stop-color="#FFBE3D"/>
</radialGradient>
<radialGradient id="paint6_radial_927_3" cx="0" cy="0" r="1" gradientUnits="userSpaceOnUse" gradientTransform="translate(-244.5 249.5) rotate(-19.5303) scale(1091.82 388.544)">
<stop stop-color="#0577C8"/>
<stop offset="0.30343" stop-color="#B456D6"/>
<stop offset="0.558417" stop-color="#EA7AAF"/>
<stop offset="0.805348" stop-color="#EDA571"/>
<stop offset="1" stop-color="#FFBE3D"/>
</radialGradient>
<radialGradient id="paint7_radial_927_3" cx="0" cy="0" r="1" gradientUnits="userSpaceOnUse" gradientTransform="translate(-244.5 249.5) rotate(-19.5303) scale(1091.82 388.544)">
<stop stop-color="#0577C8"/>
<stop offset="0.30343" stop-color="#B456D6"/>
<stop offset="0.558417" stop-color="#EA7AAF"/>
<stop offset="0.805348" stop-color="#EDA571"/>
<stop offset="1" stop-color="#FFBE3D"/>
</radialGradient>
<radialGradient id="paint8_radial_927_3" cx="0" cy="0" r="1" gradientUnits="userSpaceOnUse" gradientTransform="translate(-244.5 249.5) rotate(-19.5303) scale(1091.82 388.544)">
<stop stop-color="#0577C8"/>
<stop offset="0.30343" stop-color="#B456D6"/>
<stop offset="0.558417" stop-color="#EA7AAF"/>
<stop offset="0.805348" stop-color="#EDA571"/>
<stop offset="1" stop-color="#FFBE3D"/>
</radialGradient>
<radialGradient id="paint9_radial_927_3" cx="0" cy="0" r="1" gradientUnits="userSpaceOnUse" gradientTransform="translate(-244.5 249.5) rotate(-19.5303) scale(1091.82 388.544)">
<stop stop-color="#0577C8"/>
<stop offset="0.30343" stop-color="#B456D6"/>
<stop offset="0.558417" stop-color="#EA7AAF"/>
<stop offset="0.805348" stop-color="#EDA571"/>
<stop offset="1" stop-color="#FFBE3D"/>
</radialGradient>
<radialGradient id="paint10_radial_927_3" cx="0" cy="0" r="1" gradientUnits="userSpaceOnUse" gradientTransform="translate(-244.5 249.5) rotate(-19.5303) scale(1091.82 388.544)">
<stop stop-color="#0577C8"/>
<stop offset="0.30343" stop-color="#B456D6"/>
<stop offset="0.558417" stop-color="#EA7AAF"/>
<stop offset="0.805348" stop-color="#EDA571"/>
<stop offset="1" stop-color="#FFBE3D"/>
</radialGradient>
<radialGradient id="paint11_radial_927_3" cx="0" cy="0" r="1" gradientUnits="userSpaceOnUse" gradientTransform="translate(-244.5 249.5) rotate(-19.5303) scale(1091.82 388.544)">
<stop stop-color="#0577C8"/>
<stop offset="0.30343" stop-color="#B456D6"/>
<stop offset="0.558417" stop-color="#EA7AAF"/>
<stop offset="0.805348" stop-color="#EDA571"/>
<stop offset="1" stop-color="#FFBE3D"/>
</radialGradient>
<radialGradient id="paint12_radial_927_3" cx="0" cy="0" r="1" gradientUnits="userSpaceOnUse" gradientTransform="translate(-244.5 249.5) rotate(-19.5303) scale(1091.82 388.544)">
<stop stop-color="#0577C8"/>
<stop offset="0.30343" stop-color="#B456D6"/>
<stop offset="0.558417" stop-color="#EA7AAF"/>
<stop offset="0.805348" stop-color="#EDA571"/>
<stop offset="1" stop-color="#FFBE3D"/>
</radialGradient>
<radialGradient id="paint13_radial_927_3" cx="0" cy="0" r="1" gradientUnits="userSpaceOnUse" gradientTransform="translate(-244.5 249.5) rotate(-19.5303) scale(1091.82 388.544)">
<stop stop-color="#0577C8"/>
<stop offset="0.30343" stop-color="#B456D6"/>
<stop offset="0.558417" stop-color="#EA7AAF"/>
<stop offset="0.805348" stop-color="#EDA571"/>
<stop offset="1" stop-color="#FFBE3D"/>
</radialGradient>
<radialGradient id="paint14_radial_927_3" cx="0" cy="0" r="1" gradientUnits="userSpaceOnUse" gradientTransform="translate(-244.5 249.5) rotate(-19.5303) scale(1091.82 388.544)">
<stop stop-color="#0577C8"/>
<stop offset="0.30343" stop-color="#B456D6"/>
<stop offset="0.558417" stop-color="#EA7AAF"/>
<stop offset="0.805348" stop-color="#EDA571"/>
<stop offset="1" stop-color="#FFBE3D"/>
</radialGradient>
<radialGradient id="paint15_radial_927_3" cx="0" cy="0" r="1" gradientUnits="userSpaceOnUse" gradientTransform="translate(-244.5 249.5) rotate(-19.5303) scale(1091.82 388.544)">
<stop stop-color="#0577C8"/>
<stop offset="0.30343" stop-color="#B456D6"/>
<stop offset="0.558417" stop-color="#EA7AAF"/>
<stop offset="0.805348" stop-color="#EDA571"/>
<stop offset="1" stop-color="#FFBE3D"/>
</radialGradient>
<radialGradient id="paint16_radial_927_3" cx="0" cy="0" r="1" gradientUnits="userSpaceOnUse" gradientTransform="translate(-244.5 249.5) rotate(-19.5303) scale(1091.82 388.544)">
<stop stop-color="#0577C8"/>
<stop offset="0.30343" stop-color="#B456D6"/>
<stop offset="0.558417" stop-color="#EA7AAF"/>
<stop offset="0.805348" stop-color="#EDA571"/>
<stop offset="1" stop-color="#FFBE3D"/>
</radialGradient>
<radialGradient id="paint17_radial_927_3" cx="0" cy="0" r="1" gradientUnits="userSpaceOnUse" gradientTransform="translate(-244.5 249.5) rotate(-19.5303) scale(1091.82 388.544)">
<stop stop-color="#0577C8"/>
<stop offset="0.30343" stop-color="#B456D6"/>
<stop offset="0.558417" stop-color="#EA7AAF"/>
<stop offset="0.805348" stop-color="#EDA571"/>
<stop offset="1" stop-color="#FFBE3D"/>
</radialGradient>
<radialGradient id="paint18_radial_927_3" cx="0" cy="0" r="1" gradientUnits="userSpaceOnUse" gradientTransform="translate(-244.5 249.5) rotate(-19.5303) scale(1091.82 388.544)">
<stop stop-color="#0577C8"/>
<stop offset="0.30343" stop-color="#B456D6"/>
<stop offset="0.558417" stop-color="#EA7AAF"/>
<stop offset="0.805348" stop-color="#EDA571"/>
<stop offset="1" stop-color="#FFBE3D"/>
</radialGradient>
<radialGradient id="paint19_radial_927_3" cx="0" cy="0" r="1" gradientUnits="userSpaceOnUse" gradientTransform="translate(-244.5 249.5) rotate(-19.5303) scale(1091.82 388.544)">
<stop stop-color="#0577C8"/>
<stop offset="0.30343" stop-color="#B456D6"/>
<stop offset="0.558417" stop-color="#EA7AAF"/>
<stop offset="0.805348" stop-color="#EDA571"/>
<stop offset="1" stop-color="#FFBE3D"/>
</radialGradient>
<radialGradient id="paint20_radial_927_3" cx="0" cy="0" r="1" gradientUnits="userSpaceOnUse" gradientTransform="translate(-244.5 249.5) rotate(-19.5303) scale(1091.82 388.544)">
<stop stop-color="#0577C8"/>
<stop offset="0.30343" stop-color="#B456D6"/>
<stop offset="0.558417" stop-color="#EA7AAF"/>
<stop offset="0.805348" stop-color="#EDA571"/>
<stop offset="1" stop-color="#FFBE3D"/>
</radialGradient>
<radialGradient id="paint21_radial_927_3" cx="0" cy="0" r="1" gradientUnits="userSpaceOnUse" gradientTransform="translate(-244.5 249.5) rotate(-19.5303) scale(1091.82 388.544)">
<stop stop-color="#0577C8"/>
<stop offset="0.30343" stop-color="#B456D6"/>
<stop offset="0.558417" stop-color="#EA7AAF"/>
<stop offset="0.805348" stop-color="#EDA571"/>
<stop offset="1" stop-color="#FFBE3D"/>
</radialGradient>
<radialGradient id="paint22_radial_927_3" cx="0" cy="0" r="1" gradientUnits="userSpaceOnUse" gradientTransform="translate(-244.5 249.5) rotate(-19.5303) scale(1091.82 388.544)">
<stop stop-color="#0577C8"/>
<stop offset="0.30343" stop-color="#B456D6"/>
<stop offset="0.558417" stop-color="#EA7AAF"/>
<stop offset="0.805348" stop-color="#EDA571"/>
<stop offset="1" stop-color="#FFBE3D"/>
</radialGradient>
<radialGradient id="paint23_radial_927_3" cx="0" cy="0" r="1" gradientUnits="userSpaceOnUse" gradientTransform="translate(-244.5 249.5) rotate(-19.5303) scale(1091.82 388.544)">
<stop stop-color="#0577C8"/>
<stop offset="0.30343" stop-color="#B456D6"/>
<stop offset="0.558417" stop-color="#EA7AAF"/>
<stop offset="0.805348" stop-color="#EDA571"/>
<stop offset="1" stop-color="#FFBE3D"/>
</radialGradient>
<radialGradient id="paint24_radial_927_3" cx="0" cy="0" r="1" gradientUnits="userSpaceOnUse" gradientTransform="translate(-244.5 249.5) rotate(-19.5303) scale(1091.82 388.544)">
<stop stop-color="#0577C8"/>
<stop offset="0.30343" stop-color="#B456D6"/>
<stop offset="0.558417" stop-color="#EA7AAF"/>
<stop offset="0.805348" stop-color="#EDA571"/>
<stop offset="1" stop-color="#FFBE3D"/>
</radialGradient>
<radialGradient id="paint25_radial_927_3" cx="0" cy="0" r="1" gradientUnits="userSpaceOnUse" gradientTransform="translate(-244.5 249.5) rotate(-19.5303) scale(1091.82 388.544)">
<stop stop-color="#0577C8"/>
<stop offset="0.30343" stop-color="#B456D6"/>
<stop offset="0.558417" stop-color="#EA7AAF"/>
<stop offset="0.805348" stop-color="#EDA571"/>
<stop offset="1" stop-color="#FFBE3D"/>
</radialGradient>
<radialGradient id="paint26_radial_927_3" cx="0" cy="0" r="1" gradientUnits="userSpaceOnUse" gradientTransform="translate(-244.5 249.5) rotate(-19.5303) scale(1091.82 388.544)">
<stop stop-color="#0577C8"/>
<stop offset="0.30343" stop-color="#B456D6"/>
<stop offset="0.558417" stop-color="#EA7AAF"/>
<stop offset="0.805348" stop-color="#EDA571"/>
<stop offset="1" stop-color="#FFBE3D"/>
</radialGradient>
<radialGradient id="paint27_radial_927_3" cx="0" cy="0" r="1" gradientUnits="userSpaceOnUse" gradientTransform="translate(-244.5 249.5) rotate(-19.5303) scale(1091.82 388.544)">
<stop stop-color="#0577C8"/>
<stop offset="0.30343" stop-color="#B456D6"/>
<stop offset="0.558417" stop-color="#EA7AAF"/>
<stop offset="0.805348" stop-color="#EDA571"/>
<stop offset="1" stop-color="#FFBE3D"/>
</radialGradient>
<radialGradient id="paint28_radial_927_3" cx="0" cy="0" r="1" gradientUnits="userSpaceOnUse" gradientTransform="translate(-244.5 249.5) rotate(-19.5303) scale(1091.82 388.544)">
<stop stop-color="#0577C8"/>
<stop offset="0.30343" stop-color="#B456D6"/>
<stop offset="0.558417" stop-color="#EA7AAF"/>
<stop offset="0.805348" stop-color="#EDA571"/>
<stop offset="1" stop-color="#FFBE3D"/>
</radialGradient>
<radialGradient id="paint29_radial_927_3" cx="0" cy="0" r="1" gradientUnits="userSpaceOnUse" gradientTransform="translate(-244.5 249.5) rotate(-19.5303) scale(1091.82 388.544)">
<stop stop-color="#0577C8"/>
<stop offset="0.30343" stop-color="#B456D6"/>
<stop offset="0.558417" stop-color="#EA7AAF"/>
<stop offset="0.805348" stop-color="#EDA571"/>
<stop offset="1" stop-color="#FFBE3D"/>
</radialGradient>
<radialGradient id="paint30_radial_927_3" cx="0" cy="0" r="1" gradientUnits="userSpaceOnUse" gradientTransform="translate(-244.5 249.5) rotate(-19.5303) scale(1091.82 388.544)">
<stop stop-color="#0577C8"/>
<stop offset="0.30343" stop-color="#B456D6"/>
<stop offset="0.558417" stop-color="#EA7AAF"/>
<stop offset="0.805348" stop-color="#EDA571"/>
<stop offset="1" stop-color="#FFBE3D"/>
</radialGradient>
<radialGradient id="paint31_radial_927_3" cx="0" cy="0" r="1" gradientUnits="userSpaceOnUse" gradientTransform="translate(-244.5 249.5) rotate(-19.5303) scale(1091.82 388.544)">
<stop stop-color="#0577C8"/>
<stop offset="0.30343" stop-color="#B456D6"/>
<stop offset="0.558417" stop-color="#EA7AAF"/>
<stop offset="0.805348" stop-color="#EDA571"/>
<stop offset="1" stop-color="#FFBE3D"/>
</radialGradient>
<radialGradient id="paint32_radial_927_3" cx="0" cy="0" r="1" gradientUnits="userSpaceOnUse" gradientTransform="translate(-244.5 249.5) rotate(-19.5303) scale(1091.82 388.544)">
<stop stop-color="#0577C8"/>
<stop offset="0.30343" stop-color="#B456D6"/>
<stop offset="0.558417" stop-color="#EA7AAF"/>
<stop offset="0.805348" stop-color="#EDA571"/>
<stop offset="1" stop-color="#FFBE3D"/>
</radialGradient>
<radialGradient id="paint33_radial_927_3" cx="0" cy="0" r="1" gradientUnits="userSpaceOnUse" gradientTransform="translate(-244.5 249.5) rotate(-19.5303) scale(1091.82 388.544)">
<stop stop-color="#0577C8"/>
<stop offset="0.30343" stop-color="#B456D6"/>
<stop offset="0.558417" stop-color="#EA7AAF"/>
<stop offset="0.805348" stop-color="#EDA571"/>
<stop offset="1" stop-color="#FFBE3D"/>
</radialGradient>
<radialGradient id="paint34_radial_927_3" cx="0" cy="0" r="1" gradientUnits="userSpaceOnUse" gradientTransform="translate(-244.5 249.5) rotate(-19.5303) scale(1091.82 388.544)">
<stop stop-color="#0577C8"/>
<stop offset="0.30343" stop-color="#B456D6"/>
<stop offset="0.558417" stop-color="#EA7AAF"/>
<stop offset="0.805348" stop-color="#EDA571"/>
<stop offset="1" stop-color="#FFBE3D"/>
</radialGradient>
<radialGradient id="paint35_radial_927_3" cx="0" cy="0" r="1" gradientUnits="userSpaceOnUse" gradientTransform="translate(-244.5 249.5) rotate(-19.5303) scale(1091.82 388.544)">
<stop stop-color="#0577C8"/>
<stop offset="0.30343" stop-color="#B456D6"/>
<stop offset="0.558417" stop-color="#EA7AAF"/>
<stop offset="0.805348" stop-color="#EDA571"/>
<stop offset="1" stop-color="#FFBE3D"/>
</radialGradient>
<radialGradient id="paint36_radial_927_3" cx="0" cy="0" r="1" gradientUnits="userSpaceOnUse" gradientTransform="translate(-244.5 249.5) rotate(-19.5303) scale(1091.82 388.544)">
<stop stop-color="#0577C8"/>
<stop offset="0.30343" stop-color="#B456D6"/>
<stop offset="0.558417" stop-color="#EA7AAF"/>
<stop offset="0.805348" stop-color="#EDA571"/>
<stop offset="1" stop-color="#FFBE3D"/>
</radialGradient>
<radialGradient id="paint37_radial_927_3" cx="0" cy="0" r="1" gradientUnits="userSpaceOnUse" gradientTransform="translate(-244.5 249.5) rotate(-19.5303) scale(1091.82 388.544)">
<stop stop-color="#0577C8"/>
<stop offset="0.30343" stop-color="#B456D6"/>
<stop offset="0.558417" stop-color="#EA7AAF"/>
<stop offset="0.805348" stop-color="#EDA571"/>
<stop offset="1" stop-color="#FFBE3D"/>
</radialGradient>
<radialGradient id="paint38_radial_927_3" cx="0" cy="0" r="1" gradientUnits="userSpaceOnUse" gradientTransform="translate(-244.5 249.5) rotate(-19.5303) scale(1091.82 388.544)">
<stop stop-color="#0577C8"/>
<stop offset="0.30343" stop-color="#B456D6"/>
<stop offset="0.558417" stop-color="#EA7AAF"/>
<stop offset="0.805348" stop-color="#EDA571"/>
<stop offset="1" stop-color="#FFBE3D"/>
</radialGradient>
<radialGradient id="paint39_radial_927_3" cx="0" cy="0" r="1" gradientUnits="userSpaceOnUse" gradientTransform="translate(-244.5 249.5) rotate(-19.5303) scale(1091.82 388.544)">
<stop stop-color="#0577C8"/>
<stop offset="0.30343" stop-color="#B456D6"/>
<stop offset="0.558417" stop-color="#EA7AAF"/>
<stop offset="0.805348" stop-color="#EDA571"/>
<stop offset="1" stop-color="#FFBE3D"/>
</radialGradient>
<radialGradient id="paint40_radial_927_3" cx="0" cy="0" r="1" gradientUnits="userSpaceOnUse" gradientTransform="translate(-244.5 249.5) rotate(-19.5303) scale(1091.82 388.544)">
<stop stop-color="#0577C8"/>
<stop offset="0.30343" stop-color="#B456D6"/>
<stop offset="0.558417" stop-color="#EA7AAF"/>
<stop offset="0.805348" stop-color="#EDA571"/>
<stop offset="1" stop-color="#FFBE3D"/>
</radialGradient>
<radialGradient id="paint41_radial_927_3" cx="0" cy="0" r="1" gradientUnits="userSpaceOnUse" gradientTransform="translate(-244.5 249.5) rotate(-19.5303) scale(1091.82 388.544)">
<stop stop-color="#0577C8"/>
<stop offset="0.30343" stop-color="#B456D6"/>
<stop offset="0.558417" stop-color="#EA7AAF"/>
<stop offset="0.805348" stop-color="#EDA571"/>
<stop offset="1" stop-color="#FFBE3D"/>
</radialGradient>
<radialGradient id="paint42_radial_927_3" cx="0" cy="0" r="1" gradientUnits="userSpaceOnUse" gradientTransform="translate(-244.5 249.5) rotate(-19.5303) scale(1091.82 388.544)">
<stop stop-color="#0577C8"/>
<stop offset="0.30343" stop-color="#B456D6"/>
<stop offset="0.558417" stop-color="#EA7AAF"/>
<stop offset="0.805348" stop-color="#EDA571"/>
<stop offset="1" stop-color="#FFBE3D"/>
</radialGradient>
<radialGradient id="paint43_radial_927_3" cx="0" cy="0" r="1" gradientUnits="userSpaceOnUse" gradientTransform="translate(-244.5 249.5) rotate(-19.5303) scale(1091.82 388.544)">
<stop stop-color="#0577C8"/>
<stop offset="0.30343" stop-color="#B456D6"/>
<stop offset="0.558417" stop-color="#EA7AAF"/>
<stop offset="0.805348" stop-color="#EDA571"/>
<stop offset="1" stop-color="#FFBE3D"/>
</radialGradient>
<radialGradient id="paint44_radial_927_3" cx="0" cy="0" r="1" gradientUnits="userSpaceOnUse" gradientTransform="translate(-244.5 249.5) rotate(-19.5303) scale(1091.82 388.544)">
<stop stop-color="#0577C8"/>
<stop offset="0.30343" stop-color="#B456D6"/>
<stop offset="0.558417" stop-color="#EA7AAF"/>
<stop offset="0.805348" stop-color="#EDA571"/>
<stop offset="1" stop-color="#FFBE3D"/>
</radialGradient>
<radialGradient id="paint45_radial_927_3" cx="0" cy="0" r="1" gradientUnits="userSpaceOnUse" gradientTransform="translate(-244.5 249.5) rotate(-19.5303) scale(1091.82 388.544)">
<stop stop-color="#0577C8"/>
<stop offset="0.30343" stop-color="#B456D6"/>
<stop offset="0.558417" stop-color="#EA7AAF"/>
<stop offset="0.805348" stop-color="#EDA571"/>
<stop offset="1" stop-color="#FFBE3D"/>
</radialGradient>
<radialGradient id="paint46_radial_927_3" cx="0" cy="0" r="1" gradientUnits="userSpaceOnUse" gradientTransform="translate(-244.5 249.5) rotate(-19.5303) scale(1091.82 388.544)">
<stop stop-color="#0577C8"/>
<stop offset="0.30343" stop-color="#B456D6"/>
<stop offset="0.558417" stop-color="#EA7AAF"/>
<stop offset="0.805348" stop-color="#EDA571"/>
<stop offset="1" stop-color="#FFBE3D"/>
</radialGradient>
<clipPath id="clip0_927_3">
<rect width="319.75" height="306" fill="white"/>
</clipPath>
</defs>
</svg>
