<svg id="logo_bottom" xmlns="http://www.w3.org/2000/svg" viewBox="0 0 264.058 44.021"><defs><style>
              .cls-1 {
                fill: #fff;
              }

              .cls-2 {
                fill: #eda571;
              }

              .cls-3 {
                fill: #f7ef6f;
              }
            </style></defs><path id="Path_215" data-name="Path 215" d="M538.3,1.4h10.545l10.4,27.531h.142L569.936,1.4h9.908L562.5,43.369h-7.431Z" transform="translate(-538.3 -0.409)" class="cls-1"></path><path id="Path_216" data-name="Path 216" d="M669.861,9.61H657.9V1.4h33.193V9.61H679.132V43.44h-9.271Z" transform="translate(-573.254 -0.409)" class="cls-1"></path><path id="Path_217" data-name="Path 217" d="M712.2,1.4h28.522V9.964H721.471V17.82H739.66v8.564H721.471v8.564h20.312v8.564H712.2Z" transform="translate(-589.124 -0.409)" class="cls-1"></path><path id="Path_218" data-name="Path 218" d="M798.361,9.61H786.4V1.4h33.193V9.61H807.632V43.44h-9.271Z" transform="translate(-610.809 -0.409)" class="cls-1"></path><g id="Group_409" data-name="Group 409" transform="translate(212.252)"><g id="Group_408" data-name="Group 408"><path id="Path_219" data-name="Path 219" d="M882.221,22.011A22.011,22.011,0,1,1,860.211,0,21.989,21.989,0,0,1,882.221,22.011Z" transform="translate(-838.2)" class="cls-2"></path></g></g><g id="Group_411" data-name="Group 411" transform="translate(39.987)"><g id="Group_410" data-name="Group 410"><path id="Path_220" data-name="Path 220" d="M638.821,22.011A22.011,22.011,0,1,1,616.882,0,21.989,21.989,0,0,1,638.821,22.011Z" transform="translate(-594.8)" class="cls-3"></path></g></g><rect id="Rectangle_71" data-name="Rectangle 71" width="7.29" height="7.29" transform="translate(204.537 35.67)" class="cls-1"></rect><rect id="Rectangle_72" data-name="Rectangle 72" width="7.29" height="7.29" transform="translate(256.768 35.67)" class="cls-1"></rect></svg>